<?xml version="1.0" encoding="UTF-8"?>
<svg version="1.1" xmlns="http://www.w3.org/2000/svg" width="1772" height="378">
<path d="M0 0 C584.76 0 1169.52 0 1772 0 C1772 124.74 1772 249.48 1772 378 C1187.24 378 602.48 378 0 378 C0 253.26 0 128.52 0 0 Z " fill="#FEFEFE" transform="translate(0,0)"/>
<path d="M0 0 C3.28217171 1.43945944 6.66518306 2.51025407 10.07421875 3.6015625 C15.49897293 5.34785519 20.51542944 7.34850512 25.51171875 10.1015625 C25.92164063 9.53566406 26.3315625 8.96976563 26.75390625 8.38671875 C27.29273438 7.65324219 27.8315625 6.91976562 28.38671875 6.1640625 C28.92039062 5.43316406 29.4540625 4.70226562 30.00390625 3.94921875 C31.91886682 1.6026479 32.94767595 1.17393667 35.94335938 0.78955078 C46.58924075 -0.01163078 57.2080476 -0.05056295 67.87939453 -0.02880859 C71.00558318 -0.02344802 74.1316282 -0.02878329 77.2578125 -0.03515625 C79.29036489 -0.03449532 81.3229172 -0.03321384 83.35546875 -0.03125 C84.72330505 -0.03428635 84.72330505 -0.03428635 86.11877441 -0.03738403 C93.66034938 -0.01081484 100.93308185 0.56023129 108.51171875 1.1015625 C108.51171875 77.9915625 108.51171875 154.8815625 108.51171875 234.1015625 C104.33172375 234.9375615 100.99488848 235.22812046 96.78125 235.23095703 C96.12530853 235.23270935 95.46936707 235.23446167 94.79354858 235.23626709 C92.63707796 235.24064869 90.48069013 235.23776066 88.32421875 235.234375 C86.81876612 235.2350491 85.31331359 235.23602001 83.80786133 235.23727417 C80.65737875 235.23874614 77.50692458 235.23661268 74.35644531 235.23193359 C70.32481118 235.22623661 66.29324363 235.22951829 62.26161194 235.23550606 C59.15433249 235.23912518 56.04706875 235.23796687 52.93978882 235.23537827 C51.45348096 235.23471274 49.96717166 235.23552432 48.48086548 235.23785782 C46.40126792 235.24040652 44.32177714 235.23651257 42.2421875 235.23095703 C40.46944458 235.22976364 40.46944458 235.22976364 38.66088867 235.22854614 C35.76786989 235.11189126 33.2695745 234.9855979 30.51171875 234.1015625 C28.63128978 230.60007408 27.51171875 228.0935319 27.51171875 224.1015625 C13.1785752 229.11269923 13.1785752 229.11269923 -0.45703125 235.7421875 C-9.00005296 239.57333641 -17.26148362 240.60298704 -26.55078125 240.4765625 C-27.64205322 240.46641113 -28.7333252 240.45625977 -29.85766602 240.44580078 C-59.28827849 239.88842737 -87.06389167 229.26246023 -109.48828125 210.1015625 C-110.27976562 209.47121094 -111.07125 208.84085938 -111.88671875 208.19140625 C-122.96274027 199.03911478 -131.00853499 186.78862291 -137.48828125 174.1015625 C-137.79749512 173.51777832 -138.10670898 172.93399414 -138.42529297 172.33251953 C-153.56331116 143.33051396 -153.18765686 105.99081428 -144.14941406 75.15576172 C-139.40100193 60.40201737 -131.39503376 47.92638885 -121.48828125 36.1015625 C-120.93527344 35.41320312 -120.38226562 34.72484375 -119.8125 34.015625 C-104.67927269 15.74017627 -81.2234483 3.66384803 -58.48828125 -1.8984375 C-57.40289063 -2.18460938 -56.3175 -2.47078125 -55.19921875 -2.765625 C-37.02178995 -7.50167965 -17.25247628 -8.35517336 0 0 Z " fill="#72BE89" transform="translate(1004.48828125,136.8984375)"/>
<path d="M0 0 C0.71089783 -0.00626404 1.42179565 -0.01252808 2.15423584 -0.01898193 C15.96629544 -0.09591713 29.3568519 1.57759183 42.3125 6.625 C43.10350098 6.92688232 43.89450195 7.22876465 44.70947266 7.53979492 C74.15705705 19.09431381 95.96712569 40.29066849 108.73828125 69.28125 C116.37585362 87.9225975 117.91566387 106.2122146 117.8125 126.0625 C117.80747477 127.75130076 117.80291368 129.44010296 117.79882812 131.12890625 C117.78790399 135.23180711 117.7706958 139.33463727 117.75 143.4375 C108.97225964 148.59263652 95.55023923 146.57821106 85.68823242 146.55102539 C84.22820538 146.55074253 82.7681782 146.55090319 81.30815125 146.5514679 C77.38754571 146.551752 73.46697146 146.5459184 69.54637313 146.53889394 C65.4331235 146.53259543 61.31987297 146.5320515 57.20661926 146.53086853 C49.43678214 146.52777422 41.66695928 146.51958672 33.8971284 146.50951904 C25.04330933 146.49829854 16.18948953 146.49283256 7.33566511 146.48782361 C-10.85956464 146.4774023 -29.05478117 146.45984006 -47.25 146.4375 C-46.47927291 148.35110742 -45.70194197 150.26205586 -44.921875 152.171875 C-44.4897168 153.23631836 -44.05755859 154.30076172 -43.61230469 155.39746094 C-38.46931309 166.87425868 -28.79281322 174.42132764 -17.4296875 179.25 C-5.01304647 183.88717306 10.36487215 184.53725853 22.75 179.4375 C29.04683002 176.49900553 29.04683002 176.49900553 33.9153595 171.74565125 C36.65035131 168.08717032 38.75795021 166.60950442 43.31619263 165.81918335 C47.89711395 165.53379287 52.47317707 165.64997896 57.05859375 165.75390625 C58.752507 165.7669752 60.44644686 165.77693325 62.14039612 165.78392029 C66.5814727 165.81054467 71.02092601 165.87921565 75.46136475 165.95684814 C79.99941044 166.02868064 84.53772055 166.06047428 89.07617188 166.09570312 C97.96815799 166.17059444 106.85894359 166.28993794 115.75 166.4375 C115.44348996 167.85696054 115.13448684 169.27588286 114.82446289 170.69458008 C114.65266006 171.48480057 114.48085724 172.27502106 114.30384827 173.08918762 C108.88878264 196.04902412 93.84374122 215.15488006 73.96386719 227.55126953 C40.57838797 247.36884689 1.17785784 249.55269742 -35.9375 240.25 C-66.16703814 232.15038513 -95.34617828 212.77760841 -111.19628906 185.36865234 C-120.61737278 168.1024864 -125.63547454 149.80860903 -125.51074219 130.13208008 C-125.50007069 128.13820766 -125.51168006 126.14425693 -125.5234375 124.15039062 C-125.45558878 89.83590252 -114.15871663 59.56080379 -90.125 34.9375 C-65.96593123 10.90122638 -33.53956186 0.13819614 0 0 Z " fill="#27B2D2" transform="translate(494.25,131.5625)"/>
<path d="M0 0 C-0.46656145 12.16704787 -2.80769011 23.98941113 -5 35.9375 C-5.37300149 37.99533302 -5.74540175 40.05327511 -6.1171875 42.11132812 C-6.79701937 45.87301234 -7.48090095 49.63391865 -8.16796875 53.39428711 C-8.81049804 56.92457998 -9.42370343 60.45817733 -10 64 C-10.67764404 63.96970703 -11.35528809 63.93941406 -12.0534668 63.90820312 C-45.28880112 60.05481667 -45.28880112 60.05481667 -75.38671875 70.296875 C-88.16454864 83.78630317 -85.32973474 113.5838991 -86 129 C-58.94 129 -31.88 129 -4 129 C-4 150.78 -4 172.56 -4 195 C-31.06 195 -58.12 195 -86 195 C-86 250.11 -86 305.22 -86 362 C-111.74 362 -137.48 362 -164 362 C-164 307.22 -164 252.44 -164 196 C-182.81 196 -201.62 196 -221 196 C-221.07784562 173.26907943 -220.9871649 150.70479279 -220 128 C-201.52 128 -183.04 128 -164 128 C-164 122.72 -164 117.44 -164 112 C-163.22636042 80.74903289 -160.43798719 49.6353398 -139 25 C-138.54496094 24.41476563 -138.08992187 23.82953125 -137.62109375 23.2265625 C-121.36601514 2.75720424 -95.13494246 -5.717536 -70.12890625 -8.6875 C-46.21251905 -10.77181995 -22.59063857 -8.0680852 0 0 Z " fill="#4CBBBF" transform="translate(847,9)"/>
<path d="M0 0 C1.34856834 0.00401825 1.34856834 0.00401825 2.72438049 0.00811768 C3.75111122 0.013284 3.75111122 0.013284 4.79858398 0.01855469 C4.86823639 8.89410267 4.92147235 17.7695559 4.9540205 26.64531803 C4.96964564 30.76714324 4.99082588 34.88878081 5.02490234 39.01049805 C5.05760885 42.99163585 5.07546069 46.97259368 5.08321571 50.95385551 C5.08873904 52.46924101 5.09952468 53.98461717 5.11577415 55.49992561 C5.13769941 57.63012751 5.14054475 59.75959517 5.13916016 61.88989258 C5.14915291 63.70524254 5.14915291 63.70524254 5.15934753 65.55726624 C4.72779344 69.69774327 3.70051129 72.32586529 1.79858398 76.01855469 C-0.44360352 77.43652344 -0.44360352 77.43652344 -3.07641602 78.20605469 C-4.05610352 78.51285156 -5.03579102 78.81964844 -6.04516602 79.13574219 C-8.14933268 79.72428385 -10.25349935 80.31282552 -12.35766602 80.90136719 C-24.43831442 84.39068068 -34.60607672 89.90629391 -44.20141602 98.01855469 C-45.17594727 98.79457031 -46.15047852 99.57058594 -47.15454102 100.37011719 C-62.51388537 113.21821959 -72.42510476 135.55505897 -75.20141602 155.01855469 C-76.1926925 173.01085033 -76.62180807 190.95826521 -70.20141602 208.01855469 C-69.82887695 209.12199219 -69.45633789 210.22542969 -69.07250977 211.36230469 C-61.51362486 231.80026526 -45.24580154 245.36487908 -26.13891602 254.64355469 C-16.31486946 258.82070834 -6.23392555 262.3703694 3.79858398 266.01855469 C3.79858398 290.76855469 3.79858398 315.51855469 3.79858398 341.01855469 C-50.32141602 341.01855469 -104.44141602 341.01855469 -160.20141602 341.01855469 C-160.32232512 295.51195094 -160.32232512 295.51195094 -160.34790039 276.33105469 C-160.36564863 263.12691725 -160.38642641 249.92283757 -160.42773438 236.71875 C-160.45781434 227.09903227 -160.47703276 217.47936174 -160.4836815 207.85959828 C-160.48756254 202.77495989 -160.49656056 197.69045643 -160.51860619 192.60586166 C-160.69112549 151.21349781 -160.69112549 151.21349781 -157.20141602 134.01855469 C-156.96437454 132.84615234 -156.72733307 131.67375 -156.48310852 130.46582031 C-155.91519809 127.86449334 -155.25484204 125.32538439 -154.51391602 122.76855469 C-154.259729 121.86927246 -154.00554199 120.96999023 -153.74365234 120.04345703 C-146.22075716 94.52280634 -131.96046921 71.41295009 -113.5222168 52.390625 C-112.41533099 51.2407732 -111.33437787 50.06603391 -110.26000977 48.88574219 C-84.286381 21.1108103 -38.26200749 -0.14794773 0 0 Z " fill="#1B7DB8" transform="translate(160.201416015625,36.9814453125)"/>
<path d="M0 0 C44.51970722 0 83.19220592 19.68182713 115 50 C115.85335937 50.78890625 116.70671875 51.5778125 117.5859375 52.390625 C128.66327677 62.94379995 136.84216444 75.56918272 144 89 C144.53238281 89.97195312 145.06476563 90.94390625 145.61328125 91.9453125 C152.93559196 105.83310594 157.11499726 120.63736042 160 136 C160.226875 137.14984375 160.45375 138.2996875 160.6875 139.484375 C163.78297428 158.1432061 163.08380731 178.36401123 160 197 C159.88172852 197.73911621 159.76345703 198.47823242 159.64160156 199.23974609 C152.56643357 241.69975554 128.16877092 283.44122168 93.3125 309.0625 C81.96581143 317.12234565 69.72248504 323.42020322 57 329 C55.989375 329.45246094 54.97875 329.90492188 53.9375 330.37109375 C36.69719676 337.57700174 18.53021462 340 0 340 C0 314.92 0 289.84 0 264 C6.27 262.02 12.54 260.04 19 258 C44.03893401 247.76510727 59.67550856 234.64661325 70.46875 209.765625 C80.29906893 186.07900226 83.79537369 158.33656797 74 134 C69.69625669 124.06322912 64.33637625 115.00851989 57 107 C56.34902344 106.2575 55.69804687 105.515 55.02734375 104.75 C40.21443684 88.80189836 20.22040383 81.74013461 0 75 C0 50.25 0 25.5 0 0 Z " fill="#1B7DB8" transform="translate(185,38)"/>
<path d="M0 0 C3.12618864 0.00536057 6.25223367 0.00002531 9.37841797 -0.00634766 C11.41097036 -0.00568672 13.44352267 -0.00440524 15.47607422 -0.00244141 C16.38796509 -0.00446564 17.29985596 -0.00648987 18.23937988 -0.00857544 C25.78095485 0.01799375 33.05368731 0.58903989 40.63232422 1.13037109 C40.63232422 78.02037109 40.63232422 154.91037109 40.63232422 234.13037109 C36.45232921 234.96637009 33.11549395 235.25692905 28.90185547 235.25976562 C28.245914 235.26151794 27.58997253 235.26327026 26.91415405 235.26507568 C24.75768343 235.26945728 22.6012956 235.26656926 20.44482422 235.26318359 C18.93937159 235.26385769 17.43391906 235.26482861 15.9284668 235.26608276 C12.77798422 235.26755473 9.62753005 235.26542127 6.47705078 235.26074219 C2.44541665 235.2550452 -1.5861509 235.25832688 -5.61778259 235.26431465 C-8.72506204 235.26793377 -11.83232579 235.26677546 -14.93960571 235.26418686 C-16.42591357 235.26352133 -17.91222287 235.26433291 -19.39852905 235.26666641 C-21.47812661 235.26921512 -23.55761739 235.26532116 -25.63720703 235.25976562 C-27.40994995 235.25857224 -27.40994995 235.25857224 -29.21850586 235.25735474 C-32.11152464 235.14069985 -34.60982003 235.0144065 -37.36767578 234.13037109 C-39.24810475 230.62888267 -40.36767578 228.1223405 -40.36767578 224.13037109 C-41.50205078 224.56349609 -42.63642578 224.99662109 -43.80517578 225.44287109 C-45.32575796 226.00604968 -46.8466057 226.5685116 -48.36767578 227.13037109 C-49.11146484 227.41654297 -49.85525391 227.70271484 -50.62158203 227.99755859 C-51.36279297 228.26826172 -52.10400391 228.53896484 -52.86767578 228.81787109 C-53.87314453 229.19492187 -53.87314453 229.19492187 -54.89892578 229.57958984 C-58.42950973 230.36726759 -61.75303907 230.21010573 -65.36767578 230.13037109 C-65.41856673 223.15611909 -65.45348942 216.18191535 -65.47753906 209.20751953 C-65.48756968 206.83705862 -65.50119738 204.46660999 -65.51855469 202.09619141 C-65.54293221 198.68047036 -65.55418857 195.26491355 -65.56298828 191.84912109 C-65.57331085 190.79672241 -65.58363342 189.74432373 -65.5942688 188.66003418 C-65.59642341 174.39073458 -65.59642341 174.39073458 -61.76708984 170.50708008 C-61.14543945 170.21647705 -60.52378906 169.92587402 -59.88330078 169.62646484 C-59.19776123 169.28236572 -58.51222168 168.9382666 -57.8059082 168.58374023 C-57.0837915 168.24850342 -56.3616748 167.9132666 -55.61767578 167.56787109 C-47.90155762 163.59088609 -42.57532899 160.36905632 -39.75366211 151.78955078 C-37.87207299 145.23129877 -37.95500052 138.79939921 -38.00439453 132.02099609 C-38.00491459 130.68202719 -38.00439128 129.34305751 -38.00288391 128.00408936 C-38.00297298 125.21712641 -38.01327134 122.43045671 -38.03149414 119.64355469 C-38.05426791 116.08400445 -38.05470239 112.52487802 -38.04797649 108.96527481 C-38.04462638 106.20792924 -38.05128472 103.45067916 -38.06110573 100.69335175 C-38.06678244 98.74693083 -38.06552738 96.80049364 -38.06413269 94.85406494 C-38.07843071 93.07126129 -38.07843071 93.07126129 -38.09301758 91.25244141 C-38.09762497 90.21226868 -38.10223236 89.17209595 -38.10697937 88.10040283 C-38.72761946 81.02964667 -41.2834602 77.72727091 -46.44580078 73.23974609 C-48.72988032 71.59081166 -50.73209685 70.3800855 -53.22705078 69.14599609 C-53.89905518 68.79899658 -54.57105957 68.45199707 -55.26342773 68.09448242 C-57.2762301 67.05006825 -57.2762301 67.05006825 -59.3137207 66.24243164 C-61.59075694 65.08850236 -62.81878855 64.17857415 -64.36767578 62.13037109 C-67.12730113 52.53408595 -66.68567108 41.88259554 -66.62841797 31.96679688 C-66.61758118 29.73589561 -66.62845167 27.50578132 -66.64111328 25.27490234 C-66.64797041 18.00130347 -66.45641352 11.16037647 -64.36767578 4.13037109 C-64.03767578 3.80037109 -63.70767578 3.47037109 -63.36767578 3.13037109 C-55.54024418 3.28089862 -49.27542915 6.68702452 -42.36767578 10.13037109 C-41.95775391 9.56447266 -41.54783203 8.99857422 -41.12548828 8.41552734 C-40.58666016 7.68205078 -40.04783203 6.94857422 -39.49267578 6.19287109 C-38.95900391 5.46197266 -38.42533203 4.73107422 -37.87548828 3.97802734 C-35.96052771 1.63145649 -34.93171858 1.20274526 -31.93603516 0.81835938 C-21.29015378 0.01717781 -10.67134693 -0.02175435 0 0 Z " fill="#88BF51" transform="translate(1072.36767578125,136.86962890625)"/>
<path d="M0 0 C9.29817083 7.5818418 9.29817083 7.5818418 10.125 13.4375 C10.22361959 15.43863977 10.27300909 17.44251954 10.28613281 19.44604492 C10.29574036 20.63465622 10.3053479 21.82326752 10.31524658 23.04789734 C10.31949646 24.3250209 10.32374634 25.60214447 10.328125 26.91796875 C10.33236607 27.90184791 10.33236607 27.90184791 10.33669281 28.90560341 C10.35164911 32.37953717 10.36089993 35.85342982 10.36523438 39.32739258 C10.37070145 42.89010032 10.39470182 46.45242251 10.42320633 50.01500988 C10.44196751 52.77678981 10.44704549 55.53847954 10.44857025 58.30031776 C10.45301394 60.24438043 10.47159572 62.18839455 10.49053955 64.13237 C10.46602951 73.96850404 9.64001223 83.13226772 2.5078125 90.48828125 C-11.72026129 102.12731211 -29.94005403 105.06626702 -47.875 103.4375 C-63.16232539 100.574322 -75.81877611 91.31046499 -84.79296875 78.75390625 C-93.74902518 64.22519248 -96.33328711 47.98364995 -93.1875 31.19140625 C-89.71956646 17.07402678 -83.21787918 5.38541055 -70.875 -2.5625 C-48.75072748 -15.75999783 -20.61551084 -15.60645284 0 0 Z " fill="#FEFEFE" transform="translate(1024.875,208.5625)"/>
<path d="M0 0 C0.33 0 0.66 0 1 0 C1.09498779 0.73412109 1.18997559 1.46824219 1.2878418 2.22460938 C3.13485886 16.22905444 4.94990826 29.74551064 10 43 C10.28891113 43.7842334 10.57782227 44.5684668 10.87548828 45.37646484 C19.23526367 67.95696868 31.20419802 86.81347177 48 104 C48.81573486 104.84860596 48.81573486 104.84860596 49.64794922 105.71435547 C77.61165421 134.37222296 115.69716279 147.52455464 154 155 C154 155.33 154 155.66 154 156 C103.18 156 52.36 156 0 156 C0 104.52 0 53.04 0 0 Z " fill="#FDFEFE" transform="translate(0,222)"/>
<path d="M0 0 C1.47243164 -0.03673828 1.47243164 -0.03673828 2.97460938 -0.07421875 C14.46757227 -0.11985593 24.14921286 4.39943429 32.59375 12.1171875 C39.81714382 19.75244149 43.39305305 28.01942443 44.6875 38.375 C13.9975 38.375 -16.6925 38.375 -48.3125 38.375 C-46.9814856 27.72688484 -43.37007308 19.63434622 -35.3125 12.375 C-23.90220496 4.10378176 -14.02162546 0.01819809 0 0 Z " fill="#FDFEFE" transform="translate(494.3125,192.625)"/>
<path d="M0 0 C3.5 1.5 3.5 1.5 6 3 C6.33 2.34 6.66 1.68 7 1 C8.98 1 10.96 1 13 1 C13.07433795 6.87155408 13.12869117 12.74283219 13.16479492 18.61474609 C13.17985098 20.61088841 13.20030027 22.60699781 13.22631836 24.60302734 C13.26284161 27.47762185 13.27975837 30.35177772 13.29296875 33.2265625 C13.30845261 34.11429352 13.32393646 35.00202454 13.33988953 35.91665649 C13.34126839 41.03077434 12.90070528 44.59696952 10 49 C3.77349034 53.79960119 -1.33331921 54.66874474 -9 54 C-13.13809788 52.49523714 -15.9098225 50.94811306 -18 47 C-18.1875 44.25 -18.1875 44.25 -18 42 C-12.43413174 42.50598802 -12.43413174 42.50598802 -10.1875 45.0625 C-7.22018776 47.69069084 -5.06717613 47.63698892 -1.1953125 47.4453125 C1.29343511 47.0862103 1.29343511 47.0862103 4.0625 44.9375 C6.42484735 41.35587659 6.41271158 39.20965814 6 35 C5.566875 35.474375 5.13375 35.94875 4.6875 36.4375 C1.59772333 39.29840433 -1.86310238 39.34111501 -5.94140625 39.28125 C-10.46818765 38.6627903 -13.26863454 35.79231258 -16.25 32.5625 C-20.4382107 26.4297629 -20.87692696 20.83904239 -19.5703125 13.62890625 C-17.94454655 7.67780003 -15.07447426 4.42374167 -10 1 C-6.80885219 -0.5955739 -3.47259755 -0.38584417 0 0 Z " fill="#6C696A" transform="translate(1399,77)"/>
<path d="M0 0 C5.4955358 3.13883599 8.50925357 6.91780707 10.3515625 13.0546875 C11.9526476 20.92668924 10.80476071 28.17579832 6.7734375 35.12890625 C3.7334383 38.58958419 0.45877097 40.80581879 -4.20703125 41.3671875 C-10.03763176 41.56326079 -14.47590251 40.64353479 -19.2265625 37.12890625 C-23.71413023 31.49068013 -24.44905636 26.89938501 -24.5390625 19.87890625 C-24.56806641 19.14027344 -24.59707031 18.40164062 -24.62695312 17.640625 C-24.69179054 11.98480699 -23.47858938 8.77298781 -20.2265625 4.12890625 C-14.15861045 -0.57685249 -7.44608555 -2.91311768 0 0 Z " fill="#FCFDFC" transform="translate(1332.2265625,69.87109375)"/>
<path d="M0 0 C1.98 0 3.96 0 6 0 C6 17.16 6 34.32 6 52 C4.02 52 2.04 52 0 52 C-0.33 51.01 -0.66 50.02 -1 49 C-1.845625 49.66 -2.69125 50.32 -3.5625 51 C-7.57882208 53.33676921 -9.42778477 53.64171442 -14 53 C-19.35903952 50.99598942 -22.21193304 48.03996719 -25 43 C-27.07700205 36.76899385 -27.21717511 28.15115278 -24.875 21.9375 C-22.29904555 17.90183803 -19.33625989 15.16812995 -15 13 C-9.70317752 12.65266738 -6.29906713 12.50700795 -2 16 C-2 16.66 -2 17.32 -2 18 C-1.34 18 -0.68 18 0 18 C0 12.06 0 6.12 0 0 Z " fill="#6A686C" transform="translate(1326,145)"/>
<path d="M0 0 C1.98 0 3.96 0 6 0 C6.33 5.61 6.66 11.22 7 17 C8.98 15.68 10.96 14.36 13 13 C18.22344192 12.34706976 21.58517724 13.154892 26 16 C30.97144553 21.10954124 32.28747931 26.49420576 32.3125 33.5 C32.1913449 40.16353074 31.0059387 43.73688967 26.5625 48.75 C23.02040373 51.86013331 21.29068113 52.88266535 16.5625 53.3125 C12.51544716 52.95749536 9.89086804 51.89086804 7 49 C6.67 49.99 6.34 50.98 6 52 C4.02 52 2.04 52 0 52 C0 34.84 0 17.68 0 0 Z " fill="#68686C" transform="translate(1409,307)"/>
<path d="M0 0 C4.48213396 2.61756624 7.1611351 5.51475417 8.75 10.5 C9.61690686 17.40683169 10.22592355 24.96023357 6.75 31.25 C3.26620818 35.6732413 -0.99973402 37.96295089 -6.51953125 38.875 C-12.23019621 39.18631393 -15.64842986 37.83839402 -20.25 34.5 C-25.09978585 29.65021415 -26.31702875 24.25574178 -26.625 17.5625 C-26.48300743 11.7230555 -24.8083006 7.18521368 -20.75390625 2.9296875 C-14.70058075 -2.35376368 -7.3496955 -3.16580812 0 0 Z " fill="#6C6A6B" transform="translate(1712.25,240.5)"/>
<path d="M0 0 C4.48213396 2.61756624 7.1611351 5.51475417 8.75 10.5 C9.61690686 17.40683169 10.22592355 24.96023357 6.75 31.25 C3.26620818 35.6732413 -0.99973402 37.96295089 -6.51953125 38.875 C-12.23019621 39.18631393 -15.64842986 37.83839402 -20.25 34.5 C-25.09978585 29.65021415 -26.31702875 24.25574178 -26.625 17.5625 C-26.48300743 11.7230555 -24.8083006 7.18521368 -20.75390625 2.9296875 C-14.70058075 -2.35376368 -7.3496955 -3.16580812 0 0 Z " fill="#6C6A6B" transform="translate(1698.25,159.5)"/>
<path d="M0 0 C4.48213396 2.61756624 7.1611351 5.51475417 8.75 10.5 C9.61690686 17.40683169 10.22592355 24.96023357 6.75 31.25 C3.26620818 35.6732413 -0.99973402 37.96295089 -6.51953125 38.875 C-12.23019621 39.18631393 -15.64842986 37.83839402 -20.25 34.5 C-25.09978585 29.65021415 -26.31702875 24.25574178 -26.625 17.5625 C-26.48300743 11.7230555 -24.8083006 7.18521368 -20.75390625 2.9296875 C-14.70058075 -2.35376368 -7.3496955 -3.16580812 0 0 Z " fill="#6C6A6B" transform="translate(1636.25,78.5)"/>
<path d="M0 0 C1.134375 0.020625 2.26875 0.04125 3.4375 0.0625 C8.09291283 9.81340594 12.25489518 19.72523227 16.29882812 29.74145508 C17.32707086 32.28605866 18.36249024 34.82766531 19.3984375 37.36914062 C20.05511342 38.98941078 20.71137927 40.6098472 21.3671875 42.23046875 C21.67647186 42.98869431 21.98575623 43.74691986 22.30441284 44.52812195 C24.4375 49.83270147 24.4375 49.83270147 24.4375 52.0625 C21.7975 52.0625 19.1575 52.0625 16.4375 52.0625 C15.5980118 49.96078133 14.76610344 47.85603375 13.9375 45.75 C13.4734375 44.57824219 13.009375 43.40648437 12.53125 42.19921875 C11.4375 39.0625 11.4375 39.0625 11.4375 36.0625 C3.8475 36.0625 -3.7425 36.0625 -11.5625 36.0625 C-12.2225 39.0325 -12.8825 42.0025 -13.5625 45.0625 C-14.50530904 47.4195226 -15.48628945 49.76332291 -16.5625 52.0625 C-18.8725 52.0625 -21.1825 52.0625 -23.5625 52.0625 C-21.63038115 45.28309713 -19.38535302 38.71051892 -16.8046875 32.15234375 C-16.4561673 31.25882706 -16.10764709 30.36531036 -15.74856567 29.44471741 C-15.01931995 27.57772362 -14.28817053 25.71147235 -13.55517578 23.84594727 C-12.42886898 20.97802275 -11.30972909 18.10737408 -10.19140625 15.23632812 C-9.47958466 13.41650311 -8.76735991 11.59683573 -8.0546875 9.77734375 C-7.71927948 8.91705063 -7.38387146 8.05675751 -7.03829956 7.1703949 C-6.72772614 6.38189651 -6.41715271 5.59339813 -6.09716797 4.78100586 C-5.68771439 3.73703896 -5.68771439 3.73703896 -5.26998901 2.67198181 C-3.92793444 -0.3810867 -3.72066503 0.06527483 0 0 Z " fill="#6C696C" transform="translate(1320.5625,306.9375)"/>
<path d="M0 0 C6.68999913 5.45763087 9.35748367 12.10875871 10.27734375 20.54296875 C10.60539482 29.00668647 8.2739153 36.3300483 3 43 C-2.12317722 47.98086674 -7.92342837 50.13585319 -15 50.375 C-22.07657163 50.13585319 -27.87682278 47.98086674 -33 43 C-39.76896642 33.9102451 -40.20490601 24.99005083 -39 14 C-37.23209103 7.28194592 -33.72790778 2.91630234 -27.96484375 -0.8828125 C-18.98371786 -5.98937712 -8.78094011 -5.21552483 0 0 Z M-29.4375 8.5625 C-33.49900997 14.89845556 -32.66052442 23.69643571 -32 31 C-30.82578619 35.737114 -28.79323394 38.36865054 -24.9375 41.4375 C-19.87791923 44.12876637 -15.63521347 44.64804955 -10 44 C-4.51169048 42.29034803 -1.79174524 38.82574027 1.0546875 34 C3.8250054 28.13883156 3.91348702 21.47522236 2.28125 15.265625 C0.08005881 9.26560386 -2.26920173 6.11206348 -7.890625 2.9296875 C-15.68596656 -0.50603712 -23.88053892 2.72056655 -29.4375 8.5625 Z " fill="#6A6A6C" transform="translate(1340,67)"/>
<path d="M0 0 C2.875 1.3125 2.875 1.3125 5 3 C5.33 3.99 5.66 4.98 6 6 C6.928125 5.195625 7.85625 4.39125 8.8125 3.5625 C12.96272494 -0.03436161 16.56044299 -0.37514186 22 0 C26.2222637 1.82325023 28.01215117 3.90065625 30 8 C30.34057617 11.41333008 30.34057617 11.41333008 30.29296875 15.26953125 C30.28872391 15.95053391 30.28447906 16.63153656 30.28010559 17.33317566 C30.2634061 19.49336459 30.22577312 21.65259642 30.1875 23.8125 C30.17244174 25.28318958 30.15875534 26.75389389 30.14648438 28.22460938 C30.11353214 31.81671357 30.06181173 35.40826326 30 39 C27.69 39 25.38 39 23 39 C22.970271 37.65252686 22.970271 37.65252686 22.93994141 36.27783203 C22.86190739 32.94909922 22.77521886 29.62082744 22.68261719 26.29248047 C22.64430326 24.8511626 22.60945457 23.40974832 22.578125 21.96826172 C22.53252554 19.89776114 22.47452556 17.82792567 22.4140625 15.7578125 C22.3826416 14.5114502 22.3512207 13.26508789 22.31884766 11.98095703 C22.30317691 8.88458224 22.30317691 8.88458224 20 7 C16.56307141 6.77585248 13.22503326 6.68609756 10 8 C8.8992924 11.3021228 8.79372928 13.94083279 8.68359375 17.41796875 C8.64169922 18.67158203 8.59980469 19.92519531 8.55664062 21.21679688 C8.51732422 22.52712891 8.47800781 23.83746094 8.4375 25.1875 C8.39429008 26.52279978 8.350675 27.85808652 8.30664062 29.19335938 C8.20043498 32.46213297 8.09839003 35.73098333 8 39 C5.69 39 3.38 39 1 39 C0.98018066 38.10168457 0.96036133 37.20336914 0.93994141 36.27783203 C0.86190739 32.94909922 0.77521886 29.62082744 0.68261719 26.29248047 C0.64430326 24.8511626 0.60945457 23.40974832 0.578125 21.96826172 C0.53252554 19.89776114 0.47452556 17.82792567 0.4140625 15.7578125 C0.36693115 13.88826904 0.36693115 13.88826904 0.31884766 11.98095703 C0.30317691 8.88458224 0.30317691 8.88458224 -2 7 C-5.36711191 6.63400957 -7.34060899 6.62575105 -10.3125 8.3125 C-13.40858738 11.40858738 -13.17436953 14.82082208 -13.31640625 18.98046875 C-13.35830078 20.14384766 -13.40019531 21.30722656 -13.44335938 22.50585938 C-13.48267578 23.72080078 -13.52199219 24.93574219 -13.5625 26.1875 C-13.60568359 27.41404297 -13.64886719 28.64058594 -13.69335938 29.90429688 C-13.7995309 32.93608381 -13.90157952 35.96795315 -14 39 C-15.98 39 -17.96 39 -20 39 C-20 26.46 -20 13.92 -20 1 C-18.35 1 -16.7 1 -15 1 C-14.67 2.32 -14.34 3.64 -14 5 C-13.21625 4.360625 -12.4325 3.72125 -11.625 3.0625 C-7.531976 -0.15344743 -5.22213247 -0.35404288 0 0 Z " fill="#6E6D6F" transform="translate(1370,320)"/>
<path d="M0 0 C2.875 1.3125 2.875 1.3125 5 3 C5.33 3.99 5.66 4.98 6 6 C6.928125 5.195625 7.85625 4.39125 8.8125 3.5625 C12.96272494 -0.03436161 16.56044299 -0.37514186 22 0 C26.2222637 1.82325023 28.01215117 3.90065625 30 8 C30.34057617 11.41333008 30.34057617 11.41333008 30.29296875 15.26953125 C30.28872391 15.95053391 30.28447906 16.63153656 30.28010559 17.33317566 C30.2634061 19.49336459 30.22577312 21.65259642 30.1875 23.8125 C30.17244174 25.28318958 30.15875534 26.75389389 30.14648438 28.22460938 C30.11353214 31.81671357 30.06181173 35.40826326 30 39 C27.69 39 25.38 39 23 39 C22.970271 37.65252686 22.970271 37.65252686 22.93994141 36.27783203 C22.86190739 32.94909922 22.77521886 29.62082744 22.68261719 26.29248047 C22.64430326 24.8511626 22.60945457 23.40974832 22.578125 21.96826172 C22.53252554 19.89776114 22.47452556 17.82792567 22.4140625 15.7578125 C22.3826416 14.5114502 22.3512207 13.26508789 22.31884766 11.98095703 C22.30317691 8.88458224 22.30317691 8.88458224 20 7 C16.56307141 6.77585248 13.22503326 6.68609756 10 8 C8.8992924 11.3021228 8.79372928 13.94083279 8.68359375 17.41796875 C8.64169922 18.67158203 8.59980469 19.92519531 8.55664062 21.21679688 C8.51732422 22.52712891 8.47800781 23.83746094 8.4375 25.1875 C8.39429008 26.52279978 8.350675 27.85808652 8.30664062 29.19335938 C8.20043498 32.46213297 8.09839003 35.73098333 8 39 C5.69 39 3.38 39 1 39 C0.98018066 38.10168457 0.96036133 37.20336914 0.93994141 36.27783203 C0.86190739 32.94909922 0.77521886 29.62082744 0.68261719 26.29248047 C0.64430326 24.8511626 0.60945457 23.40974832 0.578125 21.96826172 C0.53252554 19.89776114 0.47452556 17.82792567 0.4140625 15.7578125 C0.36693115 13.88826904 0.36693115 13.88826904 0.31884766 11.98095703 C0.30317691 8.88458224 0.30317691 8.88458224 -2 7 C-5.36711191 6.63400957 -7.34060899 6.62575105 -10.3125 8.3125 C-13.40858738 11.40858738 -13.17436953 14.82082208 -13.31640625 18.98046875 C-13.35830078 20.14384766 -13.40019531 21.30722656 -13.44335938 22.50585938 C-13.48267578 23.72080078 -13.52199219 24.93574219 -13.5625 26.1875 C-13.60568359 27.41404297 -13.64886719 28.64058594 -13.69335938 29.90429688 C-13.7995309 32.93608381 -13.90157952 35.96795315 -14 39 C-15.98 39 -17.96 39 -20 39 C-20 26.46 -20 13.92 -20 1 C-18.35 1 -16.7 1 -15 1 C-14.67 2.32 -14.34 3.64 -14 5 C-13.21625 4.360625 -12.4325 3.72125 -11.625 3.0625 C-7.531976 -0.15344743 -5.22213247 -0.35404288 0 0 Z " fill="#6E6D6F" transform="translate(1574,77)"/>
<path d="M0 0 C2.87323951 2.08309864 3.93859611 3.63696085 5.5 6.8125 C5.91650391 9.90283203 5.91650391 9.90283203 5.9765625 13.3203125 C6.0075 14.55394531 6.0384375 15.78757812 6.0703125 17.05859375 C6.08835937 18.33863281 6.10640625 19.61867188 6.125 20.9375 C6.17593791 23.48184866 6.23045304 26.02612899 6.2890625 28.5703125 C6.30662598 29.6958252 6.32418945 30.82133789 6.34228516 31.98095703 C6.37984392 34.89033042 6.37984392 34.89033042 7.5 37.8125 C5.19 37.8125 2.88 37.8125 0.5 37.8125 C0.17 36.4925 -0.16 35.1725 -0.5 33.8125 C-1.8921875 34.7715625 -1.8921875 34.7715625 -3.3125 35.75 C-8.36985115 39.02240369 -12.62300956 39.39192159 -18.5 38.8125 C-22.16143529 37.22057162 -24.66390091 35.38806139 -26.5 31.8125 C-27.00064956 27.30665395 -27.1281003 24.99018806 -25 21 C-18.21863744 15.06630776 -9.10120915 14.83932974 -0.5 13.8125 C-1.76946514 8.98807816 -1.76946514 8.98807816 -5.5 5.8125 C-9.60043483 5.23103871 -13.30399225 5.18459593 -17 7.125 C-18.73115403 8.84942993 -18.73115403 8.84942993 -19.5 11.8125 C-22.47 11.3175 -22.47 11.3175 -25.5 10.8125 C-25.1999825 7.31229578 -24.54266259 5.86345809 -22.25 3.125 C-15.82167721 -2.28063507 -7.79889094 -2.64605228 0 0 Z " fill="#696769" transform="translate(1589.5,321.1875)"/>
<path d="M0 0 C2.87323951 2.08309864 3.93859611 3.63696085 5.5 6.8125 C5.91650391 9.90283203 5.91650391 9.90283203 5.9765625 13.3203125 C6.0075 14.55394531 6.0384375 15.78757813 6.0703125 17.05859375 C6.08835937 18.33863281 6.10640625 19.61867188 6.125 20.9375 C6.17593791 23.48184866 6.23045304 26.02612899 6.2890625 28.5703125 C6.30662598 29.6958252 6.32418945 30.82133789 6.34228516 31.98095703 C6.37984392 34.89033042 6.37984392 34.89033042 7.5 37.8125 C5.19 37.8125 2.88 37.8125 0.5 37.8125 C0.17 36.4925 -0.16 35.1725 -0.5 33.8125 C-1.8921875 34.7715625 -1.8921875 34.7715625 -3.3125 35.75 C-8.36985115 39.02240369 -12.62300956 39.39192159 -18.5 38.8125 C-22.16143529 37.22057162 -24.66390091 35.38806139 -26.5 31.8125 C-27.00064956 27.30665395 -27.1281003 24.99018806 -25 21 C-18.21863744 15.06630776 -9.10120915 14.83932974 -0.5 13.8125 C-1.76946514 8.98807816 -1.76946514 8.98807816 -5.5 5.8125 C-9.60043483 5.23103871 -13.30399225 5.18459593 -17 7.125 C-18.73115403 8.84942993 -18.73115403 8.84942993 -19.5 11.8125 C-22.47 11.3175 -22.47 11.3175 -25.5 10.8125 C-25.1999825 7.31229578 -24.54266259 5.86345809 -22.25 3.125 C-15.82167721 -2.28063507 -7.79889094 -2.64605228 0 0 Z " fill="#696769" transform="translate(1621.5,240.1875)"/>
<path d="M0 0 C2.87323951 2.08309864 3.93859611 3.63696085 5.5 6.8125 C5.91650391 9.90283203 5.91650391 9.90283203 5.9765625 13.3203125 C6.0075 14.55394531 6.0384375 15.78757813 6.0703125 17.05859375 C6.08835937 18.33863281 6.10640625 19.61867188 6.125 20.9375 C6.17593791 23.48184866 6.23045304 26.02612899 6.2890625 28.5703125 C6.30662598 29.6958252 6.32418945 30.82133789 6.34228516 31.98095703 C6.37984392 34.89033042 6.37984392 34.89033042 7.5 37.8125 C5.19 37.8125 2.88 37.8125 0.5 37.8125 C0.17 36.4925 -0.16 35.1725 -0.5 33.8125 C-1.8921875 34.7715625 -1.8921875 34.7715625 -3.3125 35.75 C-8.36985115 39.02240369 -12.62300956 39.39192159 -18.5 38.8125 C-22.16143529 37.22057162 -24.66390091 35.38806139 -26.5 31.8125 C-27.00064956 27.30665395 -27.1281003 24.99018806 -25 21 C-18.21863744 15.06630776 -9.10120915 14.83932974 -0.5 13.8125 C-1.76946514 8.98807816 -1.76946514 8.98807816 -5.5 5.8125 C-9.60043483 5.23103871 -13.30399225 5.18459593 -17 7.125 C-18.73115403 8.84942993 -18.73115403 8.84942993 -19.5 11.8125 C-22.47 11.3175 -22.47 11.3175 -25.5 10.8125 C-25.1999825 7.31229578 -24.54266259 5.86345809 -22.25 3.125 C-15.82167721 -2.28063507 -7.79889094 -2.64605228 0 0 Z " fill="#696769" transform="translate(1513.5,240.1875)"/>
<path d="M0 0 C2.87323951 2.08309864 3.93859611 3.63696085 5.5 6.8125 C5.91650391 9.90283203 5.91650391 9.90283203 5.9765625 13.3203125 C6.0075 14.55394531 6.0384375 15.78757813 6.0703125 17.05859375 C6.08835937 18.33863281 6.10640625 19.61867187 6.125 20.9375 C6.17593791 23.48184866 6.23045304 26.02612899 6.2890625 28.5703125 C6.30662598 29.6958252 6.32418945 30.82133789 6.34228516 31.98095703 C6.37984392 34.89033042 6.37984392 34.89033042 7.5 37.8125 C5.19 37.8125 2.88 37.8125 0.5 37.8125 C0.17 36.4925 -0.16 35.1725 -0.5 33.8125 C-1.8921875 34.7715625 -1.8921875 34.7715625 -3.3125 35.75 C-8.36985115 39.02240369 -12.62300956 39.39192159 -18.5 38.8125 C-22.16143529 37.22057162 -24.66390091 35.38806139 -26.5 31.8125 C-27.00064956 27.30665395 -27.1281003 24.99018806 -25 21 C-18.21863744 15.06630776 -9.10120915 14.83932974 -0.5 13.8125 C-1.76946514 8.98807816 -1.76946514 8.98807816 -5.5 5.8125 C-9.60043483 5.23103871 -13.30399225 5.18459593 -17 7.125 C-18.73115403 8.84942993 -18.73115403 8.84942993 -19.5 11.8125 C-22.47 11.3175 -22.47 11.3175 -25.5 10.8125 C-25.1999825 7.31229578 -24.54266259 5.86345809 -22.25 3.125 C-15.82167721 -2.28063507 -7.79889094 -2.64605228 0 0 Z " fill="#696769" transform="translate(1607.5,159.1875)"/>
<path d="M0 0 C2.87323951 2.08309864 3.93859611 3.63696085 5.5 6.8125 C5.91650391 9.90283203 5.91650391 9.90283203 5.9765625 13.3203125 C6.0075 14.55394531 6.0384375 15.78757813 6.0703125 17.05859375 C6.08835937 18.33863281 6.10640625 19.61867187 6.125 20.9375 C6.17593791 23.48184866 6.23045304 26.02612899 6.2890625 28.5703125 C6.30662598 29.6958252 6.32418945 30.82133789 6.34228516 31.98095703 C6.37984392 34.89033042 6.37984392 34.89033042 7.5 37.8125 C5.19 37.8125 2.88 37.8125 0.5 37.8125 C0.17 36.4925 -0.16 35.1725 -0.5 33.8125 C-1.8921875 34.7715625 -1.8921875 34.7715625 -3.3125 35.75 C-8.36985115 39.02240369 -12.62300956 39.39192159 -18.5 38.8125 C-22.16143529 37.22057162 -24.66390091 35.38806139 -26.5 31.8125 C-27.00064956 27.30665395 -27.1281003 24.99018806 -25 21 C-18.21863744 15.06630776 -9.10120915 14.83932974 -0.5 13.8125 C-1.76946514 8.98807816 -1.76946514 8.98807816 -5.5 5.8125 C-9.60043483 5.23103871 -13.30399225 5.18459593 -17 7.125 C-18.73115403 8.84942993 -18.73115403 8.84942993 -19.5 11.8125 C-22.47 11.3175 -22.47 11.3175 -25.5 10.8125 C-25.1999825 7.31229578 -24.54266259 5.86345809 -22.25 3.125 C-15.82167721 -2.28063507 -7.79889094 -2.64605228 0 0 Z " fill="#696769" transform="translate(1511.5,159.1875)"/>
<path d="M0 0 C2.87323951 2.08309864 3.93859611 3.63696085 5.5 6.8125 C5.91650391 9.90283203 5.91650391 9.90283203 5.9765625 13.3203125 C6.0075 14.55394531 6.0384375 15.78757812 6.0703125 17.05859375 C6.08835937 18.33863281 6.10640625 19.61867188 6.125 20.9375 C6.17593791 23.48184866 6.23045304 26.02612899 6.2890625 28.5703125 C6.30662598 29.6958252 6.32418945 30.82133789 6.34228516 31.98095703 C6.37984392 34.89033042 6.37984392 34.89033042 7.5 37.8125 C5.19 37.8125 2.88 37.8125 0.5 37.8125 C0.17 36.4925 -0.16 35.1725 -0.5 33.8125 C-1.8921875 34.7715625 -1.8921875 34.7715625 -3.3125 35.75 C-8.36985115 39.02240369 -12.62300956 39.39192159 -18.5 38.8125 C-22.16143529 37.22057162 -24.66390091 35.38806139 -26.5 31.8125 C-27.00064956 27.30665395 -27.1281003 24.99018806 -25 21 C-18.21863744 15.06630776 -9.10120915 14.83932974 -0.5 13.8125 C-1.76946514 8.98807816 -1.76946514 8.98807816 -5.5 5.8125 C-9.60043483 5.23103871 -13.30399225 5.18459593 -17 7.125 C-18.73115403 8.84942993 -18.73115403 8.84942993 -19.5 11.8125 C-22.47 11.3175 -22.47 11.3175 -25.5 10.8125 C-25.1999825 7.31229578 -24.54266259 5.86345809 -22.25 3.125 C-15.82167721 -2.28063507 -7.79889094 -2.64605228 0 0 Z " fill="#696769" transform="translate(1446.5,78.1875)"/>
<path d="M0 0 C12.21 0 24.42 0 37 0 C37 1.98 37 3.96 37 6 C27.1 6 17.2 6 7 6 C7 11.28 7 16.56 7 22 C16.24 22 25.48 22 35 22 C35 23.98 35 25.96 35 28 C25.76 28 16.52 28 7 28 C7 33.94 7 39.88 7 46 C17.23 46 27.46 46 38 46 C38 47.98 38 49.96 38 52 C25.46 52 12.92 52 0 52 C0 34.84 0 17.68 0 0 Z " fill="#67686A" transform="translate(1403,145)"/>
<path d="M0 0 C4.73497175 3.05142624 8.41596363 6.2263545 9.8125 11.8125 C9.8125 14.7825 9.8125 17.7525 9.8125 20.8125 C0.5725 20.8125 -8.6675 20.8125 -18.1875 20.8125 C-15.3529633 29.7595244 -15.3529633 29.7595244 -10.1875 31.8125 C-5.95505476 32.2742213 -3.91643039 32.28788938 -0.3125 29.9375 C1.85202847 27.9969662 1.85202847 27.9969662 2.8125 25.8125 C4.7925 26.1425 6.7725 26.4725 8.8125 26.8125 C8.5124825 30.31270422 7.85516259 31.76154191 5.5625 34.5 C0.94772424 38.38060689 -2.91279216 39.29493717 -8.84765625 39.1171875 C-14.44411501 38.38843327 -18.72357784 35.96612436 -22.1875 31.5 C-25.82315417 24.93117399 -25.38893127 16.28934168 -23.48828125 9.20703125 C-21.4396654 4.59980657 -18.68185541 2.20311458 -14.1875 -0.1875 C-9.1889184 -1.85369387 -4.8737891 -1.81572535 0 0 Z " fill="#696869" transform="translate(1487.1875,321.1875)"/>
<path d="M0 0 C4.73497175 3.05142624 8.41596363 6.2263545 9.8125 11.8125 C9.8125 14.7825 9.8125 17.7525 9.8125 20.8125 C0.5725 20.8125 -8.6675 20.8125 -18.1875 20.8125 C-15.3529633 29.7595244 -15.3529633 29.7595244 -10.1875 31.8125 C-5.95505476 32.2742213 -3.91643039 32.28788938 -0.3125 29.9375 C1.85202847 27.9969662 1.85202847 27.9969662 2.8125 25.8125 C4.7925 26.1425 6.7725 26.4725 8.8125 26.8125 C8.5124825 30.31270422 7.85516259 31.76154191 5.5625 34.5 C0.94772424 38.38060689 -2.91279216 39.29493717 -8.84765625 39.1171875 C-14.44411501 38.38843327 -18.72357784 35.96612436 -22.1875 31.5 C-25.82315417 24.93117399 -25.38893127 16.28934168 -23.48828125 9.20703125 C-21.4396654 4.59980657 -18.68185541 2.20311458 -14.1875 -0.1875 C-9.1889184 -1.85369387 -4.8737891 -1.81572535 0 0 Z " fill="#696869" transform="translate(1364.1875,159.1875)"/>
<path d="M0 0 C11.55 0 23.1 0 35 0 C35 1.98 35 3.96 35 6 C25.76 6 16.52 6 7 6 C7 11.28 7 16.56 7 22 C14.92 22 22.84 22 31 22 C31 23.98 31 25.96 31 28 C23.08 28 15.16 28 7 28 C7 35.92 7 43.84 7 52 C4.69 52 2.38 52 0 52 C0 34.84 0 17.68 0 0 Z " fill="#68696D" transform="translate(1358,226)"/>
<path d="M0 0 C5.29696819 3.40519384 5.29696819 3.40519384 6.3125 7.375 C6.415625 8.138125 6.51875 8.90125 6.625 9.6875 C3.9375 10.5 3.9375 10.5 0.625 10.6875 C-0.15875 9.883125 -0.9425 9.07875 -1.75 8.25 C-4.56680586 5.50026095 -4.89418644 5.31910957 -8.5625 5.3125 C-12.17481159 5.43844251 -12.17481159 5.43844251 -14.375 6.6875 C-14.375 8.3375 -14.375 9.9875 -14.375 11.6875 C-13.12203125 12.07421875 -11.8690625 12.4609375 -10.578125 12.859375 C-8.926878 13.38477177 -7.27584749 13.91084927 -5.625 14.4375 C-4.8 14.69015625 -3.975 14.9428125 -3.125 15.203125 C4.85012222 17.77574507 4.85012222 17.77574507 7.625 21.6875 C8.10980461 26.05074147 8.14759805 28.51165438 6.375 32.5 C3.77420432 35.7509946 1.57428155 37.37107282 -2.375 38.6875 C-8.35001722 39.22226918 -13.2874861 39.20030722 -18.375 35.6875 C-21.0688245 32.84806336 -22.79570224 30.59775991 -23.375 26.6875 C-19.91 26.1925 -19.91 26.1925 -16.375 25.6875 C-15.92125 26.491875 -15.4675 27.29625 -15 28.125 C-13.62774335 30.77606572 -13.62774335 30.77606572 -11.375 31.6875 C-5.76796787 31.90127721 -5.76796787 31.90127721 -0.375 30.6875 C-0.045 29.0375 0.285 27.3875 0.625 25.6875 C-2.59842953 24.25486465 -5.75167213 22.88756957 -9.11328125 21.80859375 C-15.25198389 19.82327585 -19.07237045 18.38168888 -22.375 12.6875 C-23 9.6875 -23 9.6875 -22.375 6.6875 C-16.86246939 -1.50254548 -9.13527149 -3.55260558 0 0 Z " fill="#6A696A" transform="translate(1437.375,240.3125)"/>
<path d="M0 0 C5.29696819 3.40519384 5.29696819 3.40519384 6.3125 7.375 C6.415625 8.138125 6.51875 8.90125 6.625 9.6875 C3.9375 10.5 3.9375 10.5 0.625 10.6875 C-0.15875 9.883125 -0.9425 9.07875 -1.75 8.25 C-4.56680586 5.50026095 -4.89418644 5.31910957 -8.5625 5.3125 C-12.17481159 5.43844251 -12.17481159 5.43844251 -14.375 6.6875 C-14.375 8.3375 -14.375 9.9875 -14.375 11.6875 C-13.12203125 12.07421875 -11.8690625 12.4609375 -10.578125 12.859375 C-8.926878 13.38477177 -7.27584749 13.91084927 -5.625 14.4375 C-4.8 14.69015625 -3.975 14.9428125 -3.125 15.203125 C4.85012222 17.77574507 4.85012222 17.77574507 7.625 21.6875 C8.10980461 26.05074147 8.14759805 28.51165438 6.375 32.5 C3.77420432 35.7509946 1.57428155 37.37107282 -2.375 38.6875 C-8.35001722 39.22226918 -13.2874861 39.20030722 -18.375 35.6875 C-21.0688245 32.84806336 -22.79570224 30.59775991 -23.375 26.6875 C-19.91 26.1925 -19.91 26.1925 -16.375 25.6875 C-15.92125 26.491875 -15.4675 27.29625 -15 28.125 C-13.62774335 30.77606572 -13.62774335 30.77606572 -11.375 31.6875 C-5.76796787 31.90127721 -5.76796787 31.90127721 -0.375 30.6875 C-0.045 29.0375 0.285 27.3875 0.625 25.6875 C-2.59842953 24.25486465 -5.75167213 22.88756957 -9.11328125 21.80859375 C-15.25198389 19.82327585 -19.07237045 18.38168888 -22.375 12.6875 C-23 9.6875 -23 9.6875 -22.375 6.6875 C-16.86246939 -1.50254548 -9.13527149 -3.55260558 0 0 Z " fill="#6A696A" transform="translate(1538.375,78.3125)"/>
<path d="M0 0 C1.98 0 3.96 0 6 0 C6.0093457 0.82725586 6.01869141 1.65451172 6.02832031 2.50683594 C6.08200319 6.25516415 6.1656571 10.00224162 6.25 13.75 C6.26417969 15.05195313 6.27835938 16.35390625 6.29296875 17.6953125 C6.32519531 18.94570312 6.35742188 20.19609375 6.390625 21.484375 C6.41157227 22.63647461 6.43251953 23.78857422 6.45410156 24.97558594 C7.10833486 28.60020225 8.09676738 29.79713756 11 32 C14.77692486 32.72324093 16.38967678 32.38641766 19.640625 30.328125 C23.86037839 25.88657117 22.78591457 18.89745985 22.8125 13.1875 C22.83763672 11.92228516 22.86277344 10.65707031 22.88867188 9.35351562 C22.94750491 6.23536457 22.98381506 3.11861633 23 0 C25.31 0 27.62 0 30 0 C30 12.54 30 25.08 30 38 C28.02 38 26.04 38 24 38 C23.67 36.68 23.34 35.36 23 34 C22.401875 34.639375 21.80375 35.27875 21.1875 35.9375 C17.80641722 39.12537805 14.62921013 39.34397693 10.06640625 39.28515625 C6.64659744 38.81323556 4.5734053 37.20577598 2 35 C-0.44497872 31.40767433 -0.23020761 28.08532854 -0.1953125 23.828125 C-0.1924826 23.1457074 -0.18965271 22.46328979 -0.18673706 21.76019287 C-0.17558098 19.58994693 -0.15048557 17.42012029 -0.125 15.25 C-0.11496426 13.77474556 -0.10583944 12.29948463 -0.09765625 10.82421875 C-0.07565687 7.21601058 -0.04115883 3.60804625 0 0 Z " fill="#6D6B6E" transform="translate(1543,159)"/>
<path d="M0 0 C9.9 0 19.8 0 30 0 C30 6.57197479 29.84873944 6.87516474 25.5625 11.1875 C24.655 12.12980469 23.7475 13.07210937 22.8125 14.04296875 C22.34457031 14.52685059 21.87664062 15.01073242 21.39453125 15.50927734 C18.37438159 18.73774965 15.67189007 22.2390919 12.91015625 25.6875 C11 28 11 28 8 31 C15.59 31.33 23.18 31.66 31 32 C31 33.98 31 35.96 31 38 C20.44 38 9.88 38 -1 38 C-1 31 -1 31 0.17407227 28.95532227 C0.71604248 28.41447998 1.2580127 27.8736377 1.81640625 27.31640625 C2.41300049 26.7023291 3.00959473 26.08825195 3.62426758 25.45556641 C4.26388428 24.83085449 4.90350098 24.20614258 5.5625 23.5625 C6.84976085 22.24948421 8.13622743 20.93568924 9.421875 19.62109375 C10.04126953 18.99831543 10.66066406 18.37553711 11.29882812 17.73388672 C13.94584242 15.0359683 16.40125978 12.18543572 18.86328125 9.3203125 C20 8 20 8 21 7 C14.07 6.67 7.14 6.34 0 6 C0 4.02 0 2.04 0 0 Z " fill="#686767" transform="translate(1559,240)"/>
<path d="M0 0 C3.85596543 1.30957316 5.50173027 2.19341804 7.6496582 5.67041016 C9.1748806 9.43120984 9.34483448 12.10291092 9.29296875 16.1484375 C9.28872391 16.80582916 9.28447906 17.46322083 9.28010559 18.14053345 C9.26344977 20.21912391 9.2258262 22.29670774 9.1875 24.375 C9.17243605 25.79295464 9.15875065 27.21092464 9.14648438 28.62890625 C9.11359038 32.0862589 9.06190165 35.54303103 9 39 C7.02 39 5.04 39 3 39 C2.9906543 38.17274414 2.98130859 37.34548828 2.97167969 36.49316406 C2.91799681 32.74483585 2.8343429 28.99775838 2.75 25.25 C2.73582031 23.94804687 2.72164062 22.64609375 2.70703125 21.3046875 C2.67480469 20.05429687 2.64257812 18.80390625 2.609375 17.515625 C2.58842773 16.36352539 2.56748047 15.21142578 2.54589844 14.02441406 C1.8941693 10.41367143 0.87517155 9.21054058 -2 7 C-4.25692079 6.51007075 -4.25692079 6.51007075 -6.5625 6.875 C-7.70912109 6.96394531 -7.70912109 6.96394531 -8.87890625 7.0546875 C-11.19909774 7.88625812 -11.19909774 7.88625812 -12.734375 10.265625 C-14.59670369 15.76064423 -14.57360272 21.10854341 -14.6875 26.875 C-14.72166016 28.0403125 -14.75582031 29.205625 -14.79101562 30.40625 C-14.87319354 33.27073718 -14.94244421 36.13492985 -15 39 C-16.98 39 -18.96 39 -21 39 C-21 26.46 -21 13.92 -21 1 C-19.35 1 -17.7 1 -16 1 C-15.67 2.32 -15.34 3.64 -15 5 C-14.21625 4.360625 -13.4325 3.72125 -12.625 3.0625 C-8.46186314 -0.2085361 -5.1987424 -0.52277857 0 0 Z " fill="#66666A" transform="translate(1526,320)"/>
<path d="M0 0 C3.85596543 1.30957316 5.50173027 2.19341804 7.6496582 5.67041016 C9.1748806 9.43120984 9.34483448 12.10291092 9.29296875 16.1484375 C9.28872391 16.80582916 9.28447906 17.46322083 9.28010559 18.14053345 C9.26344977 20.21912391 9.2258262 22.29670774 9.1875 24.375 C9.17243605 25.79295464 9.15875065 27.21092464 9.14648438 28.62890625 C9.11359038 32.0862589 9.06190165 35.54303103 9 39 C7.02 39 5.04 39 3 39 C2.9906543 38.17274414 2.98130859 37.34548828 2.97167969 36.49316406 C2.91799681 32.74483585 2.8343429 28.99775838 2.75 25.25 C2.73582031 23.94804687 2.72164062 22.64609375 2.70703125 21.3046875 C2.67480469 20.05429687 2.64257812 18.80390625 2.609375 17.515625 C2.58842773 16.36352539 2.56748047 15.21142578 2.54589844 14.02441406 C1.8941693 10.41367143 0.87517155 9.21054058 -2 7 C-4.25692079 6.51007075 -4.25692079 6.51007075 -6.5625 6.875 C-7.70912109 6.96394531 -7.70912109 6.96394531 -8.87890625 7.0546875 C-11.19909774 7.88625812 -11.19909774 7.88625812 -12.734375 10.265625 C-14.59670369 15.76064423 -14.57360272 21.10854341 -14.6875 26.875 C-14.72166016 28.0403125 -14.75582031 29.205625 -14.79101562 30.40625 C-14.87319354 33.27073718 -14.94244421 36.13492985 -15 39 C-16.98 39 -18.96 39 -21 39 C-21 26.46 -21 13.92 -21 1 C-19.35 1 -17.7 1 -16 1 C-15.67 2.32 -15.34 3.64 -15 5 C-14.21625 4.360625 -13.4325 3.72125 -12.625 3.0625 C-8.46186314 -0.2085361 -5.1987424 -0.52277857 0 0 Z " fill="#66666A" transform="translate(1750,239)"/>
<path d="M0 0 C3.85596543 1.30957316 5.50173027 2.19341804 7.6496582 5.67041016 C9.1748806 9.43120984 9.34483448 12.10291092 9.29296875 16.1484375 C9.28872391 16.80582916 9.28447906 17.46322083 9.28010559 18.14053345 C9.26344977 20.21912391 9.2258262 22.29670774 9.1875 24.375 C9.17243605 25.79295464 9.15875065 27.21092464 9.14648438 28.62890625 C9.11359038 32.0862589 9.06190165 35.54303103 9 39 C7.02 39 5.04 39 3 39 C2.9906543 38.17274414 2.98130859 37.34548828 2.97167969 36.49316406 C2.91799681 32.74483585 2.8343429 28.99775838 2.75 25.25 C2.73582031 23.94804687 2.72164062 22.64609375 2.70703125 21.3046875 C2.67480469 20.05429688 2.64257812 18.80390625 2.609375 17.515625 C2.58842773 16.36352539 2.56748047 15.21142578 2.54589844 14.02441406 C1.8941693 10.41367143 0.87517155 9.21054058 -2 7 C-4.25692079 6.51007075 -4.25692079 6.51007075 -6.5625 6.875 C-7.70912109 6.96394531 -7.70912109 6.96394531 -8.87890625 7.0546875 C-11.19909774 7.88625812 -11.19909774 7.88625812 -12.734375 10.265625 C-14.59670369 15.76064423 -14.57360272 21.10854341 -14.6875 26.875 C-14.72166016 28.0403125 -14.75582031 29.205625 -14.79101562 30.40625 C-14.87319354 33.27073718 -14.94244421 36.13492985 -15 39 C-16.98 39 -18.96 39 -21 39 C-21 26.46 -21 13.92 -21 1 C-19.35 1 -17.7 1 -16 1 C-15.67 2.32 -15.34 3.64 -15 5 C-14.21625 4.360625 -13.4325 3.72125 -12.625 3.0625 C-8.46186314 -0.2085361 -5.1987424 -0.52277857 0 0 Z " fill="#66666A" transform="translate(1736,158)"/>
<path d="M0 0 C3.85596543 1.30957316 5.50173027 2.19341804 7.6496582 5.67041016 C9.1748806 9.43120984 9.34483448 12.10291092 9.29296875 16.1484375 C9.28872391 16.80582916 9.28447906 17.46322083 9.28010559 18.14053345 C9.26344977 20.21912391 9.2258262 22.29670774 9.1875 24.375 C9.17243605 25.79295464 9.15875065 27.21092464 9.14648438 28.62890625 C9.11359038 32.0862589 9.06190165 35.54303103 9 39 C7.02 39 5.04 39 3 39 C2.9906543 38.17274414 2.98130859 37.34548828 2.97167969 36.49316406 C2.91799681 32.74483585 2.8343429 28.99775838 2.75 25.25 C2.73582031 23.94804688 2.72164062 22.64609375 2.70703125 21.3046875 C2.67480469 20.05429688 2.64257812 18.80390625 2.609375 17.515625 C2.58842773 16.36352539 2.56748047 15.21142578 2.54589844 14.02441406 C1.8941693 10.41367143 0.87517155 9.21054058 -2 7 C-4.25692079 6.51007075 -4.25692079 6.51007075 -6.5625 6.875 C-7.70912109 6.96394531 -7.70912109 6.96394531 -8.87890625 7.0546875 C-11.19909774 7.88625812 -11.19909774 7.88625812 -12.734375 10.265625 C-14.59670369 15.76064423 -14.57360272 21.10854341 -14.6875 26.875 C-14.72166016 28.0403125 -14.75582031 29.205625 -14.79101562 30.40625 C-14.87319354 33.27073718 -14.94244421 36.13492985 -15 39 C-16.98 39 -18.96 39 -21 39 C-21 26.46 -21 13.92 -21 1 C-19.35 1 -17.7 1 -16 1 C-15.67 2.32 -15.34 3.64 -15 5 C-14.21625 4.360625 -13.4325 3.72125 -12.625 3.0625 C-8.46186314 -0.2085361 -5.1987424 -0.52277857 0 0 Z " fill="#66666A" transform="translate(1483,77)"/>
<path d="M0 0 C1.98 0 3.96 0 6 0 C7.51041757 4.07955572 9.0065145 8.16421836 10.5 12.25 C10.92925781 13.40886719 11.35851563 14.56773437 11.80078125 15.76171875 C12.20683594 16.87675781 12.61289063 17.99179687 13.03125 19.140625 C13.40830078 20.16704102 13.78535156 21.19345703 14.17382812 22.25097656 C15 25 15 25 15 29 C15.66 29 16.32 29 17 29 C17.08121094 28.08089844 17.16242188 27.16179687 17.24609375 26.21484375 C18.02701018 20.74842874 20.12516684 15.70529978 22.0625 10.5625 C22.43955078 9.54478516 22.81660156 8.52707031 23.20507812 7.47851562 C24.13053436 4.98329819 25.06230651 2.49063881 26 0 C27.98 0 29.96 0 32 0 C29.5582647 8.73506662 26.54289782 17.26845571 23.49414062 25.80566406 C22.91285162 27.44045774 22.33703377 29.07720676 21.76660156 30.71582031 C20.93220394 33.11196559 20.08127016 35.50166015 19.2265625 37.890625 C18.97742096 38.6157428 18.72827942 39.3408606 18.47158813 40.08795166 C16.59900592 45.23711938 14.13451084 50.43274458 9 53 C5.9375 53.125 5.9375 53.125 3 53 C2 52 2 52 1.9375 49.4375 C1.958125 48.633125 1.97875 47.82875 2 47 C4.64 46.67 7.28 46.34 10 46 C13.28873602 38.06834255 10.7615495 31.76185333 7.6875 24.25 C7.05398253 22.65913472 6.42116821 21.06798925 5.7890625 19.4765625 C5.48258789 18.71118164 5.17611328 17.94580078 4.86035156 17.15722656 C3.73049478 14.32424854 2.63257149 11.48109009 1.5625 8.625 C1.25441406 7.81289062 0.94632813 7.00078125 0.62890625 6.1640625 C0 4 0 4 0 0 Z " fill="#6D6A6C" transform="translate(1299,240)"/>
<path d="M0 0 C3.67677061 2.42332608 6.12520342 4.88604389 7.5 9.125 C7.62375 9.9603125 7.62375 9.9603125 7.75 10.8125 C5.44 11.1425 3.13 11.4725 0.75 11.8125 C0.069375 10.6059375 0.069375 10.6059375 -0.625 9.375 C-1.99725665 6.72393428 -1.99725665 6.72393428 -4.25 5.8125 C-8.3789791 5.77332563 -12.11838418 5.78697316 -15.25 8.625 C-17.49964031 13.54608817 -17.77776361 18.47005085 -17.25 23.8125 C-15.69728802 27.87912662 -14.88720598 29.38769602 -11.25 31.8125 C-7.66124871 32.13875012 -5.17687902 32.2884649 -1.9375 30.625 C0.03852154 28.5026065 0.86072538 26.55443009 1.75 23.8125 C3.73 24.1425 5.71 24.4725 7.75 24.8125 C7.29625711 29.69023605 6.22822112 32.33427888 2.75 35.8125 C-2.05862374 39.05552532 -6.60482995 39.8058971 -12.25 38.8125 C-16.77902255 37.08715808 -20.20471367 34.5278356 -22.75 30.375 C-25.50239465 23.89950009 -25.39347451 15.98810916 -23.5546875 9.2734375 C-21.48794024 4.63628189 -18.78268653 2.22350348 -14.25 -0.1875 C-9.22141801 -1.863694 -4.90969589 -1.79392735 0 0 Z " fill="#6C696A" transform="translate(1659.25,240.1875)"/>
<path d="M0 0 C3.67677061 2.42332608 6.12520342 4.88604389 7.5 9.125 C7.62375 9.9603125 7.62375 9.9603125 7.75 10.8125 C5.44 11.1425 3.13 11.4725 0.75 11.8125 C0.069375 10.6059375 0.069375 10.6059375 -0.625 9.375 C-1.99725665 6.72393428 -1.99725665 6.72393428 -4.25 5.8125 C-8.3789791 5.77332563 -12.11838418 5.78697316 -15.25 8.625 C-17.49964031 13.54608817 -17.77776361 18.47005085 -17.25 23.8125 C-15.69728802 27.87912662 -14.88720598 29.38769602 -11.25 31.8125 C-7.66124871 32.13875012 -5.17687902 32.2884649 -1.9375 30.625 C0.03852154 28.5026065 0.86072538 26.55443009 1.75 23.8125 C3.73 24.1425 5.71 24.4725 7.75 24.8125 C7.29625711 29.69023605 6.22822112 32.33427888 2.75 35.8125 C-2.05862374 39.05552532 -6.60482995 39.8058971 -12.25 38.8125 C-16.77902255 37.08715808 -20.20471367 34.5278356 -22.75 30.375 C-25.50239465 23.89950009 -25.39347451 15.98810916 -23.5546875 9.2734375 C-21.48794024 4.63628189 -18.78268653 2.22350348 -14.25 -0.1875 C-9.22141801 -1.863694 -4.90969589 -1.79392735 0 0 Z " fill="#6C696A" transform="translate(1475.25,240.1875)"/>
<path d="M0 0 C3.67677061 2.42332608 6.12520342 4.88604389 7.5 9.125 C7.62375 9.9603125 7.62375 9.9603125 7.75 10.8125 C5.44 11.1425 3.13 11.4725 0.75 11.8125 C0.069375 10.6059375 0.069375 10.6059375 -0.625 9.375 C-1.99725665 6.72393428 -1.99725665 6.72393428 -4.25 5.8125 C-8.3789791 5.77332563 -12.11838418 5.78697316 -15.25 8.625 C-17.49964031 13.54608817 -17.77776361 18.47005085 -17.25 23.8125 C-15.69728802 27.87912662 -14.88720598 29.38769602 -11.25 31.8125 C-7.66124871 32.13875012 -5.17687902 32.2884649 -1.9375 30.625 C0.03852154 28.5026065 0.86072538 26.55443009 1.75 23.8125 C3.73 24.1425 5.71 24.4725 7.75 24.8125 C7.29625711 29.69023605 6.22822112 32.33427888 2.75 35.8125 C-2.05862374 39.05552532 -6.60482995 39.8058971 -12.25 38.8125 C-16.77902255 37.08715808 -20.20471367 34.5278356 -22.75 30.375 C-25.50239465 23.89950009 -25.39347451 15.98810916 -23.5546875 9.2734375 C-21.48794024 4.63628189 -18.78268653 2.22350348 -14.25 -0.1875 C-9.22141801 -1.863694 -4.90969589 -1.79392735 0 0 Z " fill="#6C696A" transform="translate(1645.25,159.1875)"/>
<path d="M0 0 C4.00876493 2.11783807 6.37375513 3.76730786 8 8 C8.62660358 13.23141131 9.15378955 19.0063741 6.25 23.625 C2.9481801 27.11025433 1.34504444 27.85326788 -3.4375 28.375 C-7.64801951 27.93178742 -9.11525013 27.04959272 -12 24 C-14.6791384 18.509653 -14.81770334 12.99109377 -14 7 C-10.84950087 0.7692731 -6.6761693 -0.55634744 0 0 Z " fill="#FBFBFA" transform="translate(1707,245)"/>
<path d="M0 0 C4.00876493 2.11783807 6.37375513 3.76730786 8 8 C8.62660358 13.23141131 9.15378955 19.0063741 6.25 23.625 C2.9481801 27.11025433 1.34504444 27.85326788 -3.4375 28.375 C-7.64801951 27.93178742 -9.11525013 27.04959272 -12 24 C-14.6791384 18.509653 -14.81770334 12.99109377 -14 7 C-10.84950087 0.7692731 -6.6761693 -0.55634744 0 0 Z " fill="#FBFBFA" transform="translate(1693,164)"/>
<path d="M0 0 C4.00876493 2.11783807 6.37375513 3.76730786 8 8 C8.62660358 13.23141131 9.15378955 19.0063741 6.25 23.625 C2.9481801 27.11025433 1.34504444 27.85326788 -3.4375 28.375 C-7.64801951 27.93178742 -9.11525013 27.04959272 -12 24 C-14.6791384 18.509653 -14.81770334 12.99109377 -14 7 C-10.84950087 0.7692731 -6.6761693 -0.55634744 0 0 Z " fill="#FBFBFA" transform="translate(1631,83)"/>
<path d="M0 0 C3.9152244 2.40252407 5.8838209 4.53528359 7 9 C7.48713669 14.94306756 6.82899947 19.69562599 4 25 C1.55824881 27.79057278 0.27528982 27.96496311 -3.4375 28.4375 C-7.55085087 27.93235165 -9.10461516 26.89538484 -12 24 C-13.55799897 20.88400206 -13.30803114 17.60595599 -13.375 14.1875 C-13.41238281 13.47529297 -13.44976563 12.76308594 -13.48828125 12.02929688 C-13.55595149 7.96532289 -13.19630761 6.24138802 -10.6015625 3.05078125 C-6.83109222 0.07856368 -4.81407296 -0.47196794 0 0 Z " fill="#FBFBFA" transform="translate(1428,326)"/>
<path d="M0 0 C2.92937654 1.81310142 5.43647949 3.87295899 7 7 C7.98630384 20.73238421 7.98630384 20.73238421 4 26 C0.85350943 28.38699285 -2.14113846 28.47251366 -6 28 C-9.4917107 25.77800228 -11.49500071 23.83211273 -13 20 C-13.61250946 15.00965973 -14.20785096 9.46958374 -11.94921875 4.8515625 C-8.3659028 0.51775855 -5.51571475 -0.63642863 0 0 Z " fill="#FBFCFC" transform="translate(1319,164)"/>
<path d="M0 0 C2.92483867 1.82547936 5.43429205 3.86858411 7 7 C7.14901491 9.10053716 7.22138453 11.20687825 7.25 13.3125 C7.27578125 14.44300781 7.3015625 15.57351562 7.328125 16.73828125 C6.96848788 20.31324551 6.11615577 22.13361786 4 25 C0.78477863 27.32826375 -2.10830425 27.39711181 -6 27 C-9.79028195 25.27714457 -11.51885604 23.86414002 -13 20 C-13.30078125 16.94140625 -13.30078125 16.94140625 -13.3125 13.5625 C-13.32925781 12.45003906 -13.34601563 11.33757812 -13.36328125 10.19140625 C-12.96352387 6.67955917 -12.07518354 4.82794619 -10 2 C-6.78446554 -0.32849047 -3.88978623 -0.54457007 0 0 Z " fill="#FBFCFC" transform="translate(1399,83)"/>
<path d="M0 0 C1.98 0 3.96 0 6 0 C9.87225199 8.84850773 13.05115659 17.81466649 16 27 C17.83117927 24.2532311 18.81267829 22.04450412 19.91015625 18.96484375 C20.26013672 17.99095703 20.61011719 17.01707031 20.97070312 16.01367188 C21.33099609 14.99853516 21.69128906 13.98339844 22.0625 12.9375 C22.7815531 10.92542397 23.50155809 8.91368777 24.22265625 6.90234375 C24.53984619 6.01023193 24.85703613 5.11812012 25.18383789 4.19897461 C26 2 26 2 27 0 C28.98 0 30.96 0 33 0 C32.38082405 3.45216533 31.50602226 6.62511138 30.29296875 9.9140625 C29.95330078 10.84089844 29.61363281 11.76773438 29.26367188 12.72265625 C28.90853516 13.68042969 28.55339844 14.63820312 28.1875 15.625 C27.84396484 16.55957031 27.50042969 17.49414062 27.14648438 18.45703125 C26.45361397 20.34195075 25.75944475 22.22639333 25.06396484 24.11035156 C23.3612242 28.734867 21.68045012 33.36734683 20 38 C17.125 38.125 17.125 38.125 14 38 C11.87836477 35.87836477 11.39657557 34.70889839 10.44921875 31.921875 C10.16506104 31.09671387 9.88090332 30.27155273 9.58813477 29.42138672 C9.29092529 28.5398291 8.99371582 27.65827148 8.6875 26.75 C8.06559236 24.93472851 7.44319343 23.11962526 6.8203125 21.3046875 C6.51383789 20.40717773 6.20736328 19.50966797 5.89160156 18.58496094 C4.2709469 13.88630497 2.55544685 9.2222824 0.84765625 4.5546875 C0 2 0 2 0 0 Z " fill="#6E6B6E" transform="translate(1447,159)"/>
<path d="M0 0 C0 4.29 0 8.58 0 13 C1.98 13 3.96 13 6 13 C6 14.98 6 16.96 6 19 C4.02 19 2.04 19 0 19 C0 27.58 0 36.16 0 45 C2.31 45.33 4.62 45.66 7 46 C7 47.98 7 49.96 7 52 C-0.24344527 52.61385129 -0.24344527 52.61385129 -3.609375 49.8828125 C-6.50698472 46.38863608 -6.59042219 44.86049182 -6.48828125 40.38671875 C-6.47216797 39.13955078 -6.45605469 37.89238281 -6.43945312 36.60742188 C-6.39755859 35.31384766 -6.35566406 34.02027344 -6.3125 32.6875 C-6.28994141 31.37458984 -6.26738281 30.06167969 -6.24414062 28.70898438 C-6.18527725 25.4714987 -6.10308804 22.23633 -6 19 C-7.65 19 -9.3 19 -11 19 C-11 17.02 -11 15.04 -11 13 C-9.35 13 -7.7 13 -6 13 C-6.05800781 12.31292969 -6.11601563 11.62585938 -6.17578125 10.91796875 C-6.31170747 8.20332797 -6.36461589 5.69555322 -6 3 C-2.55882353 0 -2.55882353 0 0 0 Z " fill="#6A6767" transform="translate(1552,308)"/>
<path d="M0 0 C1.98 0 3.96 0 6 0 C6 17.16 6 34.32 6 52 C4.02 52 2.04 52 0 52 C0 34.84 0 17.68 0 0 Z " fill="#66666F" transform="translate(1605,307)"/>
<path d="M0 0 C1.98 0 3.96 0 6 0 C6 17.16 6 34.32 6 52 C4.02 52 2.04 52 0 52 C0 34.84 0 17.68 0 0 Z " fill="#66666F" transform="translate(1529,226)"/>
<path d="M0 0 C1.98 0 3.96 0 6 0 C6 17.16 6 34.32 6 52 C4.02 52 2.04 52 0 52 C0 34.84 0 17.68 0 0 Z " fill="#66666F" transform="translate(1527,145)"/>
<path d="M0 0 C0.66 0.33 1.32 0.66 2 1 C1.67 2.98 1.34 4.96 1 7 C-0.093125 6.95875 -1.18625 6.9175 -2.3125 6.875 C-6.08892229 6.67925334 -6.08892229 6.67925334 -9 9 C-10.24399325 12.25121161 -10.19801069 15.62774005 -10.31640625 19.078125 C-10.35830078 20.23828125 -10.40019531 21.3984375 -10.44335938 22.59375 C-10.50233398 24.40359375 -10.50233398 24.40359375 -10.5625 26.25 C-10.62727539 28.08304688 -10.62727539 28.08304688 -10.69335938 29.953125 C-10.79937355 32.9686392 -10.90143936 35.98423448 -11 39 C-12.98 39 -14.96 39 -17 39 C-17 26.46 -17 13.92 -17 1 C-15.02 1 -13.04 1 -11 1 C-10.67 1.66 -10.34 2.32 -10 3 C-9.46375 2.505 -8.9275 2.01 -8.375 1.5 C-5.37505704 -0.39470082 -3.48955396 -0.30343947 0 0 Z " fill="#67676B" transform="translate(1375,77)"/>
<path d="M0 0 C1.98 0 3.96 0 6 0 C6 12.54 6 25.08 6 38 C4.02 38 2.04 38 0 38 C0 25.46 0 12.92 0 0 Z " fill="#6A6666" transform="translate(1449,321)"/>
<path d="M0 0 C1.98 0 3.96 0 6 0 C6 12.54 6 25.08 6 38 C4.02 38 2.04 38 0 38 C0 25.46 0 12.92 0 0 Z " fill="#6A6666" transform="translate(1673,240)"/>
<path d="M0 0 C1.98 0 3.96 0 6 0 C6 12.54 6 25.08 6 38 C4.02 38 2.04 38 0 38 C0 25.46 0 12.92 0 0 Z " fill="#6A6666" transform="translate(1545,240)"/>
<path d="M0 0 C1.98 0 3.96 0 6 0 C6 12.54 6 25.08 6 38 C4.02 38 2.04 38 0 38 C0 25.46 0 12.92 0 0 Z " fill="#6A6666" transform="translate(1401,240)"/>
<path d="M0 0 C1.98 0 3.96 0 6 0 C6 12.54 6 25.08 6 38 C4.02 38 2.04 38 0 38 C0 25.46 0 12.92 0 0 Z " fill="#6A6666" transform="translate(1659,159)"/>
<path d="M0 0 C1.98 0 3.96 0 6 0 C6 12.54 6 25.08 6 38 C4.02 38 2.04 38 0 38 C0 25.46 0 12.92 0 0 Z " fill="#6A6666" transform="translate(1502,78)"/>
<path d="M0 0 C2.05109345 2.05109345 2.54673394 3.10349868 3.47265625 5.7734375 C3.86227539 6.8871875 3.86227539 6.8871875 4.25976562 8.0234375 C4.52466797 8.79945313 4.78957031 9.57546875 5.0625 10.375 C5.33126953 11.14328125 5.60003906 11.9115625 5.87695312 12.703125 C7.06593673 16.13071863 8.11824534 19.47298135 9 23 C3.39 23 -2.22 23 -8 23 C-5.77150394 15.14161917 -3.01037052 7.59136913 0 0 Z " fill="#F4F6F4" transform="translate(1320,314)"/>
<path d="M0 0 C0.34717213 3.73210035 0.2922789 5.54070458 -1.75 8.75 C-5.10778943 12.10778943 -7.29922901 13.10357684 -12 13.3125 C-15.52482321 13.24016221 -17.44079687 12.55920313 -20 10 C-19.25 5.25 -19.25 5.25 -17 3 C-14.49156753 2.37289188 -12.03790898 1.839888 -9.5 1.375 C-8.81035156 1.2409375 -8.12070313 1.106875 -7.41015625 0.96875 C-2.33904656 0 -2.33904656 0 0 0 Z " fill="#F9FAF9" transform="translate(1589,341)"/>
<path d="M0 0 C0.34717213 3.73210035 0.2922789 5.54070458 -1.75 8.75 C-5.10778943 12.10778943 -7.29922901 13.10357684 -12 13.3125 C-15.52482321 13.24016221 -17.44079687 12.55920313 -20 10 C-19.25 5.25 -19.25 5.25 -17 3 C-14.49156753 2.37289188 -12.03790898 1.839888 -9.5 1.375 C-8.81035156 1.2409375 -8.12070313 1.106875 -7.41015625 0.96875 C-2.33904656 0 -2.33904656 0 0 0 Z " fill="#F9FAF9" transform="translate(1621,260)"/>
<path d="M0 0 C0.34717213 3.73210035 0.2922789 5.54070458 -1.75 8.75 C-5.10778943 12.10778943 -7.29922901 13.10357684 -12 13.3125 C-15.52482321 13.24016221 -17.44079687 12.55920313 -20 10 C-19.25 5.25 -19.25 5.25 -17 3 C-14.49156753 2.37289188 -12.03790898 1.839888 -9.5 1.375 C-8.81035156 1.2409375 -8.12070313 1.106875 -7.41015625 0.96875 C-2.33904656 0 -2.33904656 0 0 0 Z " fill="#F9FAF9" transform="translate(1513,260)"/>
<path d="M0 0 C0.34717213 3.73210035 0.2922789 5.54070458 -1.75 8.75 C-5.10778943 12.10778943 -7.29922901 13.10357684 -12 13.3125 C-15.52482321 13.24016221 -17.44079687 12.55920313 -20 10 C-19.25 5.25 -19.25 5.25 -17 3 C-14.49156753 2.37289188 -12.03790898 1.839888 -9.5 1.375 C-8.81035156 1.2409375 -8.12070313 1.106875 -7.41015625 0.96875 C-2.33904656 0 -2.33904656 0 0 0 Z " fill="#F9FAF9" transform="translate(1607,179)"/>
<path d="M0 0 C0.34717213 3.73210035 0.2922789 5.54070458 -1.75 8.75 C-5.10778943 12.10778943 -7.29922901 13.10357684 -12 13.3125 C-15.52482321 13.24016221 -17.44079687 12.55920313 -20 10 C-19.25 5.25 -19.25 5.25 -17 3 C-14.49156753 2.37289188 -12.03790898 1.839888 -9.5 1.375 C-8.81035156 1.2409375 -8.12070313 1.106875 -7.41015625 0.96875 C-2.33904656 0 -2.33904656 0 0 0 Z " fill="#F9FAF9" transform="translate(1511,179)"/>
<path d="M0 0 C0.34717213 3.73210035 0.2922789 5.54070458 -1.75 8.75 C-5.10778943 12.10778943 -7.29922901 13.10357684 -12 13.3125 C-15.52482321 13.24016221 -17.44079687 12.55920313 -20 10 C-19.25 5.25 -19.25 5.25 -17 3 C-14.49156753 2.37289188 -12.03790898 1.839888 -9.5 1.375 C-8.81035156 1.2409375 -8.12070313 1.106875 -7.41015625 0.96875 C-2.33904656 0 -2.33904656 0 0 0 Z " fill="#F9FAF9" transform="translate(1446,98)"/>
<path d="M0 0 C2.70373071 1.39473635 3.9068152 2.6451671 6 5 C6 6.65 6 8.3 6 10 C-0.6 10 -7.2 10 -14 10 C-13 4 -13 4 -10.9375 1.625 C-7.21682239 -0.43324719 -4.10823208 -0.92895696 0 0 Z " fill="#FBFCFA" transform="translate(1484,326)"/>
<path d="M0 0 C2.70373071 1.39473635 3.9068152 2.6451671 6 5 C6 6.65 6 8.3 6 10 C-0.6 10 -7.2 10 -14 10 C-13 4 -13 4 -10.9375 1.625 C-7.21682239 -0.43324719 -4.10823208 -0.92895696 0 0 Z " fill="#FBFCFA" transform="translate(1361,164)"/>
<path d="M0 0 C2.64 0 5.28 0 8 0 C6.3373632 3.9298688 3.9738098 6.95703183 1 10 C-1.8125 10.375 -1.8125 10.375 -4 10 C-2.8905928 6.51329166 -1.73662334 3.22515763 0 0 Z " fill="#706C6C" transform="translate(1705,226)"/>
<path d="M0 0 C2.64 0 5.28 0 8 0 C6.3373632 3.9298688 3.9738098 6.95703183 1 10 C-1.8125 10.375 -1.8125 10.375 -4 10 C-2.8905928 6.51329166 -1.73662334 3.22515763 0 0 Z " fill="#706C6C" transform="translate(1691,145)"/>
<path d="M0 0 C1.98 0 3.96 0 6 0 C6 1.98 6 3.96 6 6 C4.02 6 2.04 6 0 6 C0 4.02 0 2.04 0 0 Z " fill="#6A6666" transform="translate(1449,307)"/>
<path d="M0 0 C1.98 0 3.96 0 6 0 C6 1.98 6 3.96 6 6 C4.02 6 2.04 6 0 6 C0 4.02 0 2.04 0 0 Z " fill="#6A6666" transform="translate(1673,226)"/>
<path d="M0 0 C1.98 0 3.96 0 6 0 C6 1.98 6 3.96 6 6 C4.02 6 2.04 6 0 6 C0 4.02 0 2.04 0 0 Z " fill="#6A6666" transform="translate(1545,226)"/>
<path d="M0 0 C1.98 0 3.96 0 6 0 C6 1.98 6 3.96 6 6 C4.02 6 2.04 6 0 6 C0 4.02 0 2.04 0 0 Z " fill="#6A6666" transform="translate(1401,226)"/>
<path d="M0 0 C1.98 0 3.96 0 6 0 C6 1.98 6 3.96 6 6 C4.02 6 2.04 6 0 6 C0 4.02 0 2.04 0 0 Z " fill="#6A6666" transform="translate(1659,145)"/>
<path d="M0 0 C1.98 0 3.96 0 6 0 C6 1.98 6 3.96 6 6 C4.02 6 2.04 6 0 6 C0 4.02 0 2.04 0 0 Z " fill="#6A6666" transform="translate(1502,64)"/>
</svg>
