<?xml version="1.0" encoding="UTF-8"?>
<svg width="400" height="100" version="1.1" xmlns="http://www.w3.org/2000/svg">
 <defs>
  <linearGradient id="a" x1="5.5881" x2="5.9592" y1="17.788" y2="19.893" gradientTransform="matrix(2.5164 0 0 2.5164 4.9895 5.9754)" gradientUnits="userSpaceOnUse">
   <stop stop-color="#D85B13" offset="0"/>
   <stop stop-color="#E57B0C" offset=".269"/>
   <stop stop-color="#EF9407" offset=".5447"/>
   <stop stop-color="#F5A304" offset=".7964"/>
   <stop stop-color="#F7A803" offset="1"/>
  </linearGradient>
  <linearGradient id="c" x1="42.355" x2="42.355" y1="25.584" y2="23.958" gradientTransform="matrix(2.5164 0 0 2.5164 4.9895 5.9754)" gradientUnits="userSpaceOnUse">
   <stop stop-color="#D7D8D8" offset=".006135"/>
   <stop stop-color="#D0D1D1" offset=".1914"/>
   <stop stop-color="#BCBDBD" offset=".4642"/>
   <stop stop-color="#9C9D9D" offset=".7894"/>
   <stop stop-color="#838484" offset="1"/>
  </linearGradient>
  <linearGradient id="d" x1="10.394" x2="46.241" y1="14.401" y2="27.448" gradientTransform="matrix(2.5164 0 0 2.5164 4.9895 5.9754)" gradientUnits="userSpaceOnUse">
   <stop stop-color="#A7A5A4" offset="0"/>
   <stop stop-color="#C5C4C3" offset=".0516"/>
   <stop stop-color="#DFDEDD" offset=".1074"/>
   <stop stop-color="#F1F0F0" offset=".1648"/>
   <stop stop-color="#FBFBFB" offset=".2241"/>
   <stop stop-color="#fff" offset=".2883"/>
   <stop stop-color="#FDFDFC" offset=".5148"/>
   <stop stop-color="#F5F4F4" offset=".6495"/>
   <stop stop-color="#E7E6E6" offset=".7602"/>
   <stop stop-color="#D3D2D2" offset=".8578"/>
   <stop stop-color="#BAB9B8" offset=".9461"/>
   <stop stop-color="#A7A5A4" offset="1"/>
  </linearGradient>
  <linearGradient id="b" x1="18.42" x2="30.821" y1="34.519" y2="18.062" gradientTransform="matrix(2.5164 0 0 2.5164 4.9895 5.9754)" gradientUnits="userSpaceOnUse">
   <stop stop-color="#E20334" stop-opacity="0" offset=".0123"/>
   <stop stop-color="#DA0531" stop-opacity=".041" offset=".0489"/>
   <stop stop-color="#BB0E28" stop-opacity=".2166" offset=".2059"/>
   <stop stop-color="#A51421" stop-opacity=".388" offset=".3591"/>
   <stop stop-color="#98181D" stop-opacity=".5519" offset=".5056"/>
   <stop stop-color="#93191C" stop-opacity=".7" offset=".638"/>
   <stop stop-color="#95191D" offset="1"/>
  </linearGradient>
  <linearGradient id="g" x1="15.147" x2="40.026" y1="3.2511" y2="12.306" gradientTransform="matrix(2.5164 0 0 2.5164 4.9895 5.9754)" gradientUnits="userSpaceOnUse">
   <stop stop-color="#FDCC54" offset=".0859"/>
   <stop stop-color="#F1950A" stop-opacity=".05" offset="1"/>
  </linearGradient>
  <linearGradient id="f" x1="11.568" x2="33.253" y1="3.3251" y2="25.009" gradientTransform="matrix(2.5164 0 0 2.5164 4.9895 5.9754)" gradientUnits="userSpaceOnUse">
   <stop stop-color="#FDCC54" offset="0"/>
   <stop stop-color="#FCC94D" offset=".0154"/>
   <stop stop-color="#F7B01C" offset=".1364"/>
   <stop stop-color="#F5A709" offset=".1963"/>
   <stop stop-color="#F5A509" offset=".4906"/>
   <stop stop-color="#F39D09" offset=".6479"/>
   <stop stop-color="#F28F0A" offset=".7728"/>
   <stop stop-color="#EF7C0A" offset=".8806"/>
   <stop stop-color="#EB630B" offset=".9766"/>
   <stop stop-color="#EA5C0B" offset="1"/>
  </linearGradient>
  <linearGradient id="e" x1="24.06" x2="24.06" y1="33.563" y2="23.916" gradientTransform="matrix(2.5164 0 0 2.5164 4.9895 5.9754)" gradientUnits="userSpaceOnUse">
   <stop stop-color="#88181E" stop-opacity=".3" offset="0"/>
   <stop stop-color="#B21829" stop-opacity="0" offset=".4969"/>
   <stop stop-color="#AA1827" stop-opacity=".3111" offset=".6534"/>
   <stop stop-color="#931821" stop-opacity=".8004" offset=".8996"/>
   <stop stop-color="#88181E" offset="1"/>
  </linearGradient>
 </defs>
 <g>
  <path d="m27.587 54.693c0.15098-1.535 0.37746-3.07 0.7046-4.6554v-0.0503c-0.05033 0-0.10066 0-0.12582 0.0252-2.3151 0.22648-5.9639 0.50328-8.6816 0.85558-4.7308 0.6291-9.0339 1.2582-9.3862 1.686-0.9814 1.1576 5.5109 2.0131 15.375 2.139h2.1138z" fill="url(#a)"/>
  <path d="m77.286 9.599c-15.577 0-30.952 8.8074-40.439 21.717 0 0-22.094 1.5853-23.252 3.5481-3.4726 6.6685-3.5733 17.866-3.5733 17.866v-0.0252c0.02516-0.0503 0.05033-0.10066 0.07549-0.15099 0.3523-0.42779 4.6554-1.0569 9.3862-1.686 2.6926-0.3523 6.3665-0.6291 8.6816-0.85558 0.05033 0 0.07549 0 0.12582-0.0252 7.675-0.75492 22.321-1.8118 30.675-2.0383 20.509-0.55361 38.199-0.40262 50.479 0.15099 3.5733-21.44-10.468-38.501-32.16-38.501z" fill="url(#f)"/>
  <path d="m109.47 48.1c-12.255-0.55361-29.945-0.72976-50.479-0.15099-8.3796 0.22648-23.025 1.2834-30.7 2.0383-0.15098 0.85558-0.42779 2.2648-0.65427 4.1018v0.10066c-0.07549 0.6291-0.12582 1.2582-0.17615 1.8873v0.12582c-0.02516 0.60394-0.05033 1.2079-0.05033 1.8118 0 0.37746 0 0.75492 0.02516 1.1324 0 0.32713 0 0.6291 0.02516 0.93107 0.02516 0.65427 0.07549 1.3337 0.12582 1.988 0.02516 0.17615 0.05033 0.37747 0.07549 0.55361 0.05033 0.50329 0.12582 1.0066 0.20131 1.5098 0.02516 0.20131 0.07549 0.40262 0.10066 0.60394 0.07549 0.47811 0.17615 0.95623 0.2768 1.4344 0.05033 0.20131 0.07549 0.37746 0.12582 0.55361 0.12582 0.47812 0.25164 0.9814 0.37746 1.4595 0.02516 0.0755 0.05033 0.15098 0.07549 0.25164 7.7254-0.75493 17.212-1.4847 28.41-1.9376 0.12582 0 4.907-0.17615 4.9573-0.17615 10.368-0.32713 33.72-0.15098 40.036-0.0755 1.0066 0 1.6357 0.0252 1.6357 0.0252 5.3096 0.0755 7.4737 0.12582 12.985 0.42779 2.5416 0.12582 6.7691 0.30196 6.9956 0.85557v0.0252c0 0.0252 0 0.0252-0.0252 0.0503 3.4978-6.4672 3.5481-17.162 3.5481-17.162 0.20132-0.93107-6.4672-1.837-17.892-2.3654" fill="url(#d)"/>
  <path d="m103.53 30.234h4.6302c-4.3031-12.33-15.728-20.66-30.851-20.66-15.577 0-30.952 8.8326-40.439 21.717 6.8195-0.6291 15.728-1.1576 24.459-1.3085 1.7112-0.0252 4.9825-0.72976 6.8195-3.4475 3.4223-5.0832 6.7943-10.217 11.575-11.928 0.07549-0.0252 0.17615-0.0755 0.25164-0.10065 7.2976-2.7429 16.91 4.0262 23.554 15.728z" fill="url(#g)"/>
  <path d="m102.22 66.269c-6.3162-0.0503-29.643-0.25164-40.036 0.0755-0.05033 0-4.8063 0.17615-4.9573 0.17615-11.198 0.45295-20.685 1.1575-28.41 1.9376 3.9256 13.035 15.627 21.968 31.279 21.968 16.533 0 32.864-9.9398 42.125-24.158z" fill="#e4002b"/>
  <path d="m102.22 66.269c-9.2855 14.218-25.592 24.158-42.125 24.158-7.4486 0-13.991-2.0131-19.251-5.5361-5.7877-3.8753-9.9901-9.5875-12.054-16.432 7.7254-0.75492 17.212-1.4847 28.41-1.9376 0.15098 0 4.9322-0.17615 4.9573-0.17615 10.418-0.32713 33.77-0.15099 40.061-0.0755z" fill="url(#e)"/>
  <path d="m102.22 66.269c-1.5602-0.0252-4.1772-0.0252-7.3982-0.0503-7.4486-0.0503-18.294-0.0755-26.02 0-1.7112 1.384-3.6488 3.4475-4.5547 5.3096-6.0142 10.166-8.1028 20.131-26.699 4.9322 0 0-2.9694-0.27681-4.9825 0.10066 2.0383 3.1203 4.6554 5.7877 7.7254 7.9518 0.22648 0.15098 0.42779 0.2768 0.57877 0.37746 0.3523 0.22647 0.67943 0.45295 1.0317 0.67943 5.058 3.0952 11.223 4.8567 18.194 4.8567 16.533 0 32.864-9.9398 42.125-24.158z" fill="url(#b)"/>
  <path d="m123.86 67.552c-0.22648-0.55361-4.454-0.70459-6.9956-0.85557-5.5361-0.30197-7.7002-0.3523-12.985-0.42779 0 0-0.6291 0-1.6357-0.0252h-0.0252 0.0252c-0.93107 1.4092-1.9125 2.768-2.9694 4.1018 14.595-0.42779 24.183-1.4595 24.585-2.7932v0z" fill="url(#c)"/>
  <path d="m314 58.417c-1.8873-10.191 7.4737-21.49 19.251-24.736 13.714-2.768 25.265 2.5164 27.353 13.035 1.4595 10.292-6.4672 21.062-19.754 24.158-12.557 2.3403-24.661-2.1641-26.85-12.456zm17.665-12.381c-4.605 5.2341-5.7877 12.079-2.6422 15.249 3.1455 3.1707 9.4114 1.5098 13.991-3.7243s5.7877-12.079 2.6422-15.249c-3.1204-3.1707-9.3862-1.5098-13.991 3.7243zm-63.816-1.988c-0.0755-1.384-0.75492-2.4158-1.988-3.07-1.233-0.65426-3.0448-1.0066-5.3851-1.0066h-2.3906l-2.2648 10.644h1.9125c3.3217 0 5.8632-0.55361 7.6499-1.686 1.7615-1.1575 2.5919-2.768 2.4661-4.8818zm-26.145 25.919s-3.5733 0.15098-3.0952-3.2462l6.2407-29.241c0.3523-1.686 2.0131-3.0449 3.6991-3.0449h15.073c2.768 0 5.1838 0.17615 7.2472 0.50328 2.0886 0.30197 3.9004 0.83042 5.4354 1.5853 1.535 0.75492 2.7177 1.7363 3.5733 2.9694 0.85557 1.2079 1.3337 3.0197 1.4595 4.8315 0.25164 4.1017-1.6105 7.4234-5.6116 9.9146-4.0011 2.5164-9.7385 3.4726-17.237 3.4726h-4.1521l-2.6422 12.255zm-58.28-26.045c-0.10066-1.4344-0.7046-2.4409-1.837-3.0197-1.1324-0.60394-2.7429-0.90591-4.8818-0.90591h-3.3972l-2.0383 9.5624h3.372c2.919 0 5.1335-0.47812 6.6685-1.4847 1.5098-1.0066 2.2144-2.3906 2.1138-4.1521zm-16.508 26.045h-10.141c-0.70459-0.0252-3.3468-0.27681-2.919-3.2462l6.2407-29.241c0.3523-1.686 2.0131-3.0449 3.6991-3.0449h17.162c2.4912 0 4.6554 0.15099 6.5175 0.42779 1.8873 0.27681 3.523 0.78009 4.907 1.4847 1.384 0.7046 2.2899 1.3589 3.221 2.7429 0.95624 1.4092 1.1827 2.4661 1.3085 4.1772 0.30197 4.0766-1.4595 6.8446-5.0831 9.1597-3.3468 1.7615-7.977 2.0383-9.0842 2.0635 0 0-1.1324 0.25164 0.17615 0.57877 0 0 1.6105 0.40262 2.9442 1.5853 2.8435 2.2648 4.9322 4.605 11.374 13.287h-15.224s-2.6171-5.2593-8.0525-13.085c-1.2079-1.7363-3.1707-1.4595-3.9004-1.535zm210.77-6.8446h12.305l-0.83041 3.9508c-0.32714 1.6105-2.0131 2.919-3.6488 2.919h-19.351c-0.7046-0.0252-3.3468-0.2768-2.919-3.2462l6.2407-29.241c0.3523-1.686 2.0131-3.0448 3.6991-3.0448h10.695zm-159.36-14.117h16.155l-0.80525 3.7243c-0.32713 1.6357-2.0131 3.0448-3.6991 3.0448h-13.085l-1.5853 7.3479h16.155l-0.83042 3.9508c-0.32713 1.6105-2.0131 2.919-3.6488 2.919h-23.226c-0.70459-0.0252-3.3468-0.2768-2.919-3.2462l6.2407-29.241c0.3523-1.686 2.0131-3.0448 3.6991-3.0448h26.825l-0.80525 3.7998c-0.3523 1.686-2.0131 3.0449-3.6991 3.0449h-13.11zm98.996-14.545-0.80525 3.7998c-0.47812 1.7615-1.7866 2.9945-3.6991 3.0449h-0.85558c-7.675 0.0252-8.1532 2.1138-9.6378 9.2352l-1.837 8.4551c-2.2396 10.77-11.953 10.972-12.783 10.972h-19.452l0.83041-3.7998c0.50329-1.8621 1.8873-2.919 3.6991-3.0448h4.6805c7.675-0.0252 8.1532-2.1138 9.6378-9.2352l1.837-8.4551c2.3151-10.745 14.016-10.972 15.803-10.972z" fill="#041e42"/>
 </g>
</svg>
