<svg xmlns="http://www.w3.org/2000/svg" width="300" height="80" viewBox="0 0 300 80" version="1.1"><path d="M 26.219 8.270 C 16.795 17.754, 15.510 20.985, 18.788 26.950 C 21.483 31.854, 26.025 33.786, 39.069 35.579 C 45.356 36.443, 51.505 37.797, 52.734 38.587 C 55.495 40.364, 56.439 43.850, 55.594 49.139 C 55.207 51.556, 55.330 53.047, 55.899 52.842 C 56.423 52.654, 60.260 49.431, 64.426 45.680 C 69.843 40.801, 72 38.178, 72 36.469 C 72 34.698, 67.579 29.725, 54.951 17.289 C 45.574 8.055, 37.136 0.373, 36.201 0.218 C 35.172 0.048, 31.230 3.228, 26.219 8.270" stroke="none" fill="#ad0c44" fill-rule="evenodd"/><path d="M 88.834 21.575 C 77.762 24.983, 75.503 36.589, 84.959 41.479 C 86.519 42.286, 89.979 43.428, 92.648 44.018 C 102.377 46.167, 105 47.104, 105 48.432 C 105 51.603, 99.373 51.765, 90.494 48.851 L 83.947 46.701 81.473 49.025 C 78.772 51.563, 78.297 54.181, 80.250 55.776 C 84.698 59.407, 100.726 61.105, 109.558 58.881 C 114.682 57.591, 120 52.310, 120 48.512 C 120 41.748, 115.409 38.240, 102.864 35.421 C 95.264 33.713, 92.620 32.423, 93.570 30.887 C 94.430 29.495, 102.319 29.849, 106.964 31.487 C 111.805 33.195, 113.852 32.513, 116.016 28.470 C 117.341 25.995, 117.280 25.646, 115.247 23.999 C 112.938 22.129, 102.773 19.950, 96.918 20.070 C 95.038 20.108, 91.400 20.786, 88.834 21.575 M 126.610 21.296 C 125.033 22.449, 124.874 24.098, 125.169 36.227 C 125.549 51.871, 126.342 53.797, 134.059 57.810 C 137.828 59.769, 139.711 60.072, 146.500 59.807 C 155.994 59.438, 161.489 57.025, 164.500 51.902 C 166.233 48.954, 166.500 46.699, 166.500 35 L 166.500 21.500 162.773 20.579 C 160.276 19.962, 158.240 20.025, 156.608 20.769 C 154.249 21.844, 154.159 22.270, 153.835 34.030 C 153.522 45.392, 153.347 46.305, 151.139 48.091 C 147.851 50.750, 143.433 50.524, 140.455 47.545 C 138.131 45.222, 138 44.472, 138 33.521 C 138 22.021, 137.984 21.945, 135.435 20.975 C 131.915 19.637, 128.720 19.753, 126.610 21.296 M 175.751 20.641 C 173.186 21.382, 172.899 23.789, 173.214 41.956 L 173.500 58.412 177.234 59.187 C 179.314 59.619, 182.084 59.538, 183.484 59.006 C 185.900 58.087, 186 57.712, 186 49.525 C 186 44.836, 186.338 40.998, 186.750 40.995 C 187.162 40.992, 191.325 45.045, 196 50.001 C 203.368 57.813, 205.043 59.092, 208.578 59.607 C 215.578 60.626, 216 59.541, 216 40.510 C 216 31.520, 215.732 23.464, 215.403 22.609 C 214.616 20.557, 209.181 19.600, 205.740 20.909 C 203.047 21.933, 202.999 22.100, 202.950 30.725 L 202.900 39.500 194.100 30.175 C 186.319 21.930, 184.847 20.808, 181.399 20.492 C 179.255 20.296, 176.713 20.363, 175.751 20.641 M 237.762 21.750 C 234.868 25.021, 220.025 55.902, 220.612 57.431 C 221.394 59.469, 227.557 60.523, 230.597 59.138 C 231.941 58.526, 233.470 56.894, 233.995 55.512 C 234.912 53.101, 235.293 53, 243.450 53 C 251.802 53, 251.974 53.050, 253.437 55.879 C 254.256 57.462, 255.654 59.037, 256.545 59.379 C 260.684 60.967, 267 59.260, 267 56.552 C 267 54.277, 251.118 22.599, 249.301 21.250 C 246.758 19.362, 239.600 19.672, 237.762 21.750 M 260.794 23.298 C 259.874 28.109, 261.247 29.462, 267.595 30 L 273.500 30.500 274 44.465 L 274.500 58.430 277.651 59.331 C 279.566 59.879, 281.920 59.861, 283.651 59.285 L 286.500 58.338 287 44.419 L 287.500 30.500 293.500 30 L 299.500 29.500 299.500 25.500 L 299.500 21.500 280.371 21.229 L 261.241 20.958 260.794 23.298 M 7.750 34.427 C 3.078 38.869, 0 42.596, 0 43.812 C 0 46.115, 33.062 79.323, 35.811 79.782 C 36.829 79.952, 40.871 76.671, 45.977 71.533 C 53.653 63.808, 54.455 62.639, 54.455 59.172 C 54.455 52.239, 48.567 46.503, 40.533 45.608 C 23.174 43.676, 20.809 43.170, 18.335 40.859 C 16.079 38.752, 15.853 37.885, 16.219 32.750 C 16.444 29.587, 16.374 27.013, 16.064 27.030 C 15.754 27.046, 12.013 30.375, 7.750 34.427 M 241.685 38.534 C 240.758 40.478, 240 42.503, 240 43.034 C 240 44.090, 246.282 44.385, 247.290 43.376 C 247.834 42.832, 244.444 35, 243.665 35 C 243.503 35, 242.612 36.590, 241.685 38.534" stroke="none" fill="#0464ac" fill-rule="evenodd"/></svg>